<svg width="284" height="249" viewBox="0 0 284 249" fill="none" xmlns="http://www.w3.org/2000/svg">
<g filter="url(#filter0_d_406_238)">
<g filter="url(#filter1_d_406_238)">
<path d="M47 183.586C47 176.083 53.0828 170 60.5863 170H270.075V216.943C270.075 224.447 263.992 230.529 256.489 230.529H60.5863C53.0828 230.529 47 224.447 47 216.943V183.586Z" fill="white"/>
</g>
<path d="M60.9268 188.682H62.4803V192.211H66.5193V188.682H68.0728V197.555H66.5193V193.553H62.4803V197.555H60.9268V188.682ZM74.1461 193.777C74.1295 193.553 74.0798 193.338 73.9969 193.131C73.9224 192.924 73.8147 192.746 73.6738 192.596C73.5412 192.439 73.3755 192.315 73.1767 192.224C72.9861 192.124 72.7707 192.074 72.5304 192.074C72.2819 192.074 72.054 192.12 71.8469 192.211C71.6481 192.294 71.4741 192.414 71.3249 192.572C71.1841 192.721 71.0681 192.899 70.977 193.106C70.8941 193.313 70.8485 193.537 70.8402 193.777H74.1461ZM70.8402 194.709C70.8402 194.958 70.8734 195.198 70.9397 195.43C71.0142 195.662 71.1219 195.865 71.2628 196.039C71.4036 196.213 71.5818 196.354 71.7972 196.462C72.0126 196.561 72.2695 196.611 72.5677 196.611C72.982 196.611 73.3134 196.524 73.562 196.35C73.8188 196.167 74.0094 195.898 74.1336 195.542H75.4759C75.4013 195.89 75.2729 196.201 75.0906 196.474C74.9083 196.747 74.6888 196.979 74.4319 197.17C74.1751 197.352 73.8851 197.489 73.562 197.58C73.2471 197.679 72.9157 197.729 72.5677 197.729C72.0623 197.729 71.6149 197.646 71.2255 197.481C70.8361 197.315 70.5047 197.083 70.2313 196.785C69.9662 196.486 69.7632 196.13 69.6223 195.716C69.4897 195.302 69.4235 194.846 69.4235 194.349C69.4235 193.893 69.4939 193.462 69.6347 193.056C69.7839 192.642 69.991 192.282 70.2561 191.975C70.5296 191.66 70.8568 191.412 71.2379 191.229C71.6191 191.047 72.0499 190.956 72.5304 190.956C73.0358 190.956 73.4874 191.064 73.8851 191.279C74.2911 191.486 74.6266 191.764 74.8917 192.112C75.1569 192.46 75.3474 192.862 75.4634 193.317C75.5877 193.765 75.6208 194.229 75.5628 194.709H70.8402ZM76.6772 188.682H78.094V197.555H76.6772V188.682ZM79.6749 191.13H81.0171V192H81.042C81.2408 191.627 81.5184 191.362 81.8747 191.205C82.2309 191.039 82.6162 190.956 83.0305 190.956C83.5359 190.956 83.975 191.047 84.3478 191.229C84.7289 191.403 85.0438 191.648 85.2923 191.963C85.5409 192.269 85.7273 192.63 85.8516 193.044C85.9759 193.458 86.038 193.901 86.038 194.374C86.038 194.804 85.98 195.223 85.864 195.629C85.7563 196.035 85.5865 196.395 85.3545 196.71C85.1308 197.017 84.8449 197.265 84.497 197.456C84.149 197.638 83.7388 197.729 83.2666 197.729C83.0595 197.729 82.8523 197.708 82.6452 197.667C82.4381 197.634 82.2392 197.576 82.0487 197.493C81.8581 197.41 81.68 197.307 81.5143 197.182C81.3568 197.05 81.2243 196.896 81.1166 196.723H81.0917V199.929H79.6749V191.13ZM84.6212 194.349C84.6212 194.059 84.5839 193.777 84.5094 193.504C84.4348 193.23 84.323 192.99 84.1738 192.783C84.0247 192.567 83.8383 192.398 83.6146 192.273C83.3909 192.141 83.134 192.074 82.844 192.074C82.2475 192.074 81.796 192.282 81.4894 192.696C81.1911 193.11 81.042 193.661 81.042 194.349C81.042 194.672 81.0793 194.974 81.1538 195.256C81.2367 195.529 81.3568 195.766 81.5143 195.964C81.6717 196.163 81.8581 196.321 82.0735 196.437C82.2972 196.553 82.5541 196.611 82.844 196.611C83.1672 196.611 83.4406 196.544 83.6643 196.412C83.888 196.279 84.0703 196.109 84.2111 195.902C84.3602 195.687 84.4638 195.447 84.5218 195.181C84.5881 194.908 84.6212 194.63 84.6212 194.349ZM93.2045 194.075L89.8739 188.682H91.6759L94.0248 192.659L96.3364 188.682H98.0763L94.758 194.075V197.555H93.2045V194.075ZM100.557 197.729C100.044 197.729 99.5839 197.646 99.1779 197.481C98.7802 197.307 98.4405 197.07 98.1588 196.772C97.8854 196.474 97.6741 196.118 97.525 195.703C97.3841 195.289 97.3137 194.833 97.3137 194.336C97.3137 193.848 97.3841 193.396 97.525 192.982C97.6741 192.567 97.8854 192.211 98.1588 191.913C98.4405 191.615 98.7802 191.383 99.1779 191.217C99.5839 191.043 100.044 190.956 100.557 190.956C101.071 190.956 101.527 191.043 101.924 191.217C102.33 191.383 102.67 191.615 102.944 191.913C103.225 192.211 103.437 192.567 103.577 192.982C103.726 193.396 103.801 193.848 103.801 194.336C103.801 194.833 103.726 195.289 103.577 195.703C103.437 196.118 103.225 196.474 102.944 196.772C102.67 197.07 102.33 197.307 101.924 197.481C101.527 197.646 101.071 197.729 100.557 197.729ZM100.557 196.611C100.872 196.611 101.146 196.544 101.378 196.412C101.61 196.279 101.8 196.105 101.949 195.89C102.098 195.674 102.206 195.434 102.272 195.169C102.347 194.896 102.384 194.618 102.384 194.336C102.384 194.063 102.347 193.79 102.272 193.516C102.206 193.243 102.098 193.002 101.949 192.795C101.8 192.58 101.61 192.406 101.378 192.273C101.146 192.141 100.872 192.074 100.557 192.074C100.243 192.074 99.9691 192.141 99.7371 192.273C99.5052 192.406 99.3146 192.58 99.1655 192.795C99.0163 193.002 98.9045 193.243 98.8299 193.516C98.7636 193.79 98.7305 194.063 98.7305 194.336C98.7305 194.618 98.7636 194.896 98.8299 195.169C98.9045 195.434 99.0163 195.674 99.1655 195.89C99.3146 196.105 99.5052 196.279 99.7371 196.412C99.9691 196.544 100.243 196.611 100.557 196.611ZM110.621 197.555H109.229V196.66H109.204C109.03 196.983 108.769 197.244 108.421 197.443C108.082 197.634 107.734 197.729 107.377 197.729C106.532 197.729 105.919 197.522 105.538 197.108C105.165 196.685 104.979 196.051 104.979 195.206V191.13H106.396V195.07C106.396 195.633 106.503 196.031 106.719 196.263C106.934 196.495 107.237 196.611 107.626 196.611C107.924 196.611 108.173 196.565 108.372 196.474C108.571 196.383 108.732 196.263 108.856 196.114C108.981 195.956 109.068 195.77 109.117 195.554C109.175 195.339 109.204 195.107 109.204 194.858V191.13H110.621V197.555ZM112.115 191.13H113.445V192.373H113.47C113.511 192.199 113.59 192.029 113.706 191.863C113.83 191.697 113.975 191.548 114.141 191.416C114.315 191.275 114.506 191.163 114.713 191.08C114.92 190.997 115.131 190.956 115.346 190.956C115.512 190.956 115.624 190.96 115.682 190.968C115.748 190.977 115.815 190.985 115.881 190.993V192.36C115.781 192.344 115.678 192.331 115.57 192.323C115.471 192.306 115.371 192.298 115.272 192.298C115.032 192.298 114.804 192.348 114.588 192.447C114.381 192.538 114.199 192.679 114.042 192.87C113.884 193.052 113.76 193.28 113.669 193.553C113.578 193.827 113.532 194.142 113.532 194.498V197.555H112.115V191.13ZM126.132 191.503C126.066 191.246 125.975 191.01 125.859 190.794C125.743 190.579 125.594 190.393 125.412 190.235C125.229 190.078 125.014 189.958 124.765 189.875C124.525 189.784 124.243 189.738 123.92 189.738C123.448 189.738 123.038 189.833 122.69 190.024C122.35 190.214 122.073 190.471 121.857 190.794C121.642 191.109 121.48 191.47 121.373 191.876C121.273 192.282 121.223 192.696 121.223 193.118C121.223 193.541 121.273 193.955 121.373 194.361C121.48 194.767 121.642 195.132 121.857 195.455C122.073 195.77 122.35 196.022 122.69 196.213C123.038 196.404 123.448 196.499 123.92 196.499C124.268 196.499 124.575 196.441 124.84 196.325C125.105 196.201 125.333 196.035 125.523 195.828C125.714 195.612 125.863 195.364 125.971 195.082C126.079 194.8 126.149 194.498 126.182 194.175H127.698C127.665 194.705 127.549 195.19 127.35 195.629C127.16 196.068 126.899 196.449 126.567 196.772C126.236 197.087 125.847 197.331 125.399 197.505C124.952 197.679 124.459 197.766 123.92 197.766C123.257 197.766 122.661 197.646 122.131 197.406C121.609 197.157 121.165 196.822 120.801 196.399C120.436 195.977 120.155 195.484 119.956 194.92C119.765 194.357 119.67 193.756 119.67 193.118C119.67 192.489 119.765 191.892 119.956 191.329C120.155 190.765 120.436 190.272 120.801 189.85C121.165 189.427 121.609 189.092 122.131 188.843C122.661 188.595 123.257 188.47 123.92 188.47C124.417 188.47 124.886 188.541 125.325 188.682C125.764 188.814 126.149 189.013 126.48 189.278C126.82 189.535 127.094 189.85 127.301 190.223C127.508 190.596 127.636 191.022 127.686 191.503H126.132ZM134.555 197.555H133.163V196.66H133.138C132.964 196.983 132.703 197.244 132.355 197.443C132.015 197.634 131.667 197.729 131.311 197.729C130.466 197.729 129.853 197.522 129.472 197.108C129.099 196.685 128.912 196.051 128.912 195.206V191.13H130.329V195.07C130.329 195.633 130.437 196.031 130.652 196.263C130.868 196.495 131.17 196.611 131.559 196.611C131.858 196.611 132.106 196.565 132.305 196.474C132.504 196.383 132.666 196.263 132.79 196.114C132.914 195.956 133.001 195.77 133.051 195.554C133.109 195.339 133.138 195.107 133.138 194.858V191.13H134.555V197.555ZM137.117 195.492C137.159 195.906 137.316 196.196 137.59 196.362C137.863 196.528 138.19 196.611 138.571 196.611C138.704 196.611 138.853 196.602 139.019 196.586C139.193 196.561 139.354 196.52 139.504 196.462C139.653 196.404 139.773 196.321 139.864 196.213C139.963 196.097 140.009 195.948 140.001 195.766C139.992 195.583 139.926 195.434 139.802 195.318C139.678 195.202 139.516 195.111 139.317 195.045C139.127 194.97 138.907 194.908 138.658 194.858C138.41 194.809 138.157 194.755 137.9 194.697C137.635 194.639 137.378 194.568 137.13 194.485C136.89 194.403 136.67 194.291 136.471 194.15C136.281 194.009 136.127 193.831 136.011 193.616C135.895 193.392 135.837 193.118 135.837 192.795C135.837 192.447 135.92 192.157 136.086 191.925C136.26 191.685 136.475 191.495 136.732 191.354C136.997 191.205 137.287 191.101 137.602 191.043C137.925 190.985 138.232 190.956 138.522 190.956C138.853 190.956 139.168 190.993 139.466 191.068C139.773 191.134 140.046 191.246 140.287 191.403C140.535 191.561 140.738 191.768 140.896 192.025C141.061 192.273 141.165 192.576 141.206 192.932H139.727C139.661 192.592 139.504 192.364 139.255 192.248C139.015 192.132 138.737 192.074 138.422 192.074C138.323 192.074 138.203 192.083 138.062 192.099C137.929 192.116 137.801 192.149 137.677 192.199C137.561 192.24 137.461 192.306 137.378 192.398C137.296 192.48 137.254 192.592 137.254 192.733C137.254 192.907 137.312 193.048 137.428 193.156C137.552 193.263 137.71 193.355 137.9 193.429C138.099 193.495 138.323 193.553 138.571 193.603C138.82 193.653 139.077 193.707 139.342 193.765C139.599 193.823 139.852 193.893 140.1 193.976C140.349 194.059 140.568 194.171 140.759 194.311C140.958 194.452 141.115 194.63 141.231 194.846C141.355 195.061 141.417 195.326 141.417 195.641C141.417 196.022 141.33 196.346 141.157 196.611C140.983 196.876 140.755 197.091 140.473 197.257C140.2 197.423 139.893 197.543 139.553 197.617C139.214 197.692 138.878 197.729 138.547 197.729C138.141 197.729 137.764 197.684 137.416 197.592C137.076 197.501 136.778 197.365 136.521 197.182C136.272 196.992 136.073 196.76 135.924 196.486C135.784 196.205 135.709 195.873 135.701 195.492H137.117ZM141.847 191.13H142.916V189.204H144.333V191.13H145.613V192.186H144.333V195.616C144.333 195.766 144.337 195.894 144.345 196.002C144.362 196.109 144.391 196.201 144.432 196.275C144.482 196.35 144.552 196.408 144.643 196.449C144.734 196.482 144.859 196.499 145.016 196.499C145.115 196.499 145.215 196.499 145.314 196.499C145.414 196.491 145.513 196.474 145.613 196.449V197.543C145.455 197.559 145.302 197.576 145.153 197.592C145.004 197.609 144.85 197.617 144.693 197.617C144.32 197.617 144.018 197.584 143.786 197.518C143.562 197.443 143.384 197.34 143.251 197.207C143.127 197.066 143.04 196.892 142.99 196.685C142.949 196.478 142.924 196.242 142.916 195.977V192.186H141.847V191.13ZM149.577 197.729C149.063 197.729 148.604 197.646 148.198 197.481C147.8 197.307 147.46 197.07 147.179 196.772C146.905 196.474 146.694 196.118 146.545 195.703C146.404 195.289 146.333 194.833 146.333 194.336C146.333 193.848 146.404 193.396 146.545 192.982C146.694 192.567 146.905 192.211 147.179 191.913C147.46 191.615 147.8 191.383 148.198 191.217C148.604 191.043 149.063 190.956 149.577 190.956C150.091 190.956 150.547 191.043 150.944 191.217C151.35 191.383 151.69 191.615 151.963 191.913C152.245 192.211 152.456 192.567 152.597 192.982C152.746 193.396 152.821 193.848 152.821 194.336C152.821 194.833 152.746 195.289 152.597 195.703C152.456 196.118 152.245 196.474 151.963 196.772C151.69 197.07 151.35 197.307 150.944 197.481C150.547 197.646 150.091 197.729 149.577 197.729ZM149.577 196.611C149.892 196.611 150.165 196.544 150.397 196.412C150.629 196.279 150.82 196.105 150.969 195.89C151.118 195.674 151.226 195.434 151.292 195.169C151.367 194.896 151.404 194.618 151.404 194.336C151.404 194.063 151.367 193.79 151.292 193.516C151.226 193.243 151.118 193.002 150.969 192.795C150.82 192.58 150.629 192.406 150.397 192.273C150.165 192.141 149.892 192.074 149.577 192.074C149.262 192.074 148.989 192.141 148.757 192.273C148.525 192.406 148.334 192.58 148.185 192.795C148.036 193.002 147.924 193.243 147.85 193.516C147.783 193.79 147.75 194.063 147.75 194.336C147.75 194.618 147.783 194.896 147.85 195.169C147.924 195.434 148.036 195.674 148.185 195.89C148.334 196.105 148.525 196.279 148.757 196.412C148.989 196.544 149.262 196.611 149.577 196.611ZM153.999 191.13H155.341V192.025H155.378C155.486 191.867 155.602 191.722 155.726 191.59C155.85 191.457 155.987 191.345 156.136 191.254C156.294 191.163 156.472 191.093 156.671 191.043C156.87 190.985 157.097 190.956 157.354 190.956C157.744 190.956 158.104 191.043 158.435 191.217C158.775 191.391 159.015 191.66 159.156 192.025C159.397 191.693 159.674 191.432 159.989 191.242C160.304 191.051 160.697 190.956 161.17 190.956C161.849 190.956 162.375 191.122 162.748 191.453C163.129 191.784 163.32 192.34 163.32 193.118V197.555H161.903V193.802C161.903 193.545 161.895 193.313 161.878 193.106C161.861 192.891 161.812 192.708 161.729 192.559C161.654 192.402 161.538 192.282 161.381 192.199C161.223 192.116 161.008 192.074 160.735 192.074C160.254 192.074 159.906 192.224 159.691 192.522C159.475 192.82 159.368 193.243 159.368 193.79V197.555H157.951V193.429C157.951 192.982 157.868 192.646 157.702 192.422C157.545 192.19 157.251 192.074 156.82 192.074C156.638 192.074 156.459 192.112 156.285 192.186C156.12 192.261 155.971 192.369 155.838 192.509C155.714 192.65 155.61 192.824 155.527 193.031C155.453 193.239 155.415 193.475 155.415 193.74V197.555H153.999V191.13ZM169.224 193.777C169.208 193.553 169.158 193.338 169.075 193.131C169.001 192.924 168.893 192.746 168.752 192.596C168.62 192.439 168.454 192.315 168.255 192.224C168.064 192.124 167.849 192.074 167.609 192.074C167.36 192.074 167.132 192.12 166.925 192.211C166.726 192.294 166.552 192.414 166.403 192.572C166.262 192.721 166.146 192.899 166.055 193.106C165.972 193.313 165.927 193.537 165.919 193.777H169.224ZM165.919 194.709C165.919 194.958 165.952 195.198 166.018 195.43C166.092 195.662 166.2 195.865 166.341 196.039C166.482 196.213 166.66 196.354 166.875 196.462C167.091 196.561 167.348 196.611 167.646 196.611C168.06 196.611 168.392 196.524 168.64 196.35C168.897 196.167 169.088 195.898 169.212 195.542H170.554C170.48 195.89 170.351 196.201 170.169 196.474C169.987 196.747 169.767 196.979 169.51 197.17C169.253 197.352 168.963 197.489 168.64 197.58C168.325 197.679 167.994 197.729 167.646 197.729C167.141 197.729 166.693 197.646 166.304 197.481C165.914 197.315 165.583 197.083 165.31 196.785C165.044 196.486 164.841 196.13 164.701 195.716C164.568 195.302 164.502 194.846 164.502 194.349C164.502 193.893 164.572 193.462 164.713 193.056C164.862 192.642 165.069 192.282 165.334 191.975C165.608 191.66 165.935 191.412 166.316 191.229C166.697 191.047 167.128 190.956 167.609 190.956C168.114 190.956 168.566 191.064 168.963 191.279C169.369 191.486 169.705 191.764 169.97 192.112C170.235 192.46 170.426 192.862 170.542 193.317C170.666 193.765 170.699 194.229 170.641 194.709H165.919ZM171.718 191.13H173.048V192.373H173.073C173.114 192.199 173.193 192.029 173.309 191.863C173.433 191.697 173.578 191.548 173.744 191.416C173.918 191.275 174.108 191.163 174.316 191.08C174.523 190.997 174.734 190.956 174.949 190.956C175.115 190.956 175.227 190.96 175.285 190.968C175.351 190.977 175.418 190.985 175.484 190.993V192.36C175.384 192.344 175.281 192.331 175.173 192.323C175.074 192.306 174.974 192.298 174.875 192.298C174.635 192.298 174.407 192.348 174.191 192.447C173.984 192.538 173.802 192.679 173.644 192.87C173.487 193.052 173.363 193.28 173.272 193.553C173.181 193.827 173.135 194.142 173.135 194.498V197.555H171.718V191.13ZM177.156 195.492C177.198 195.906 177.355 196.196 177.628 196.362C177.902 196.528 178.229 196.611 178.61 196.611C178.743 196.611 178.892 196.602 179.058 196.586C179.232 196.561 179.393 196.52 179.542 196.462C179.691 196.404 179.812 196.321 179.903 196.213C180.002 196.097 180.048 195.948 180.039 195.766C180.031 195.583 179.965 195.434 179.841 195.318C179.716 195.202 179.555 195.111 179.356 195.045C179.165 194.97 178.946 194.908 178.697 194.858C178.449 194.809 178.196 194.755 177.939 194.697C177.674 194.639 177.417 194.568 177.169 194.485C176.928 194.403 176.709 194.291 176.51 194.15C176.319 194.009 176.166 193.831 176.05 193.616C175.934 193.392 175.876 193.118 175.876 192.795C175.876 192.447 175.959 192.157 176.125 191.925C176.299 191.685 176.514 191.495 176.771 191.354C177.036 191.205 177.326 191.101 177.641 191.043C177.964 190.985 178.271 190.956 178.56 190.956C178.892 190.956 179.207 190.993 179.505 191.068C179.812 191.134 180.085 191.246 180.325 191.403C180.574 191.561 180.777 191.768 180.934 192.025C181.1 192.273 181.203 192.576 181.245 192.932H179.766C179.7 192.592 179.542 192.364 179.294 192.248C179.053 192.132 178.776 192.074 178.461 192.074C178.362 192.074 178.242 192.083 178.101 192.099C177.968 192.116 177.84 192.149 177.715 192.199C177.599 192.24 177.5 192.306 177.417 192.398C177.334 192.48 177.293 192.592 177.293 192.733C177.293 192.907 177.351 193.048 177.467 193.156C177.591 193.263 177.749 193.355 177.939 193.429C178.138 193.495 178.362 193.553 178.61 193.603C178.859 193.653 179.116 193.707 179.381 193.765C179.638 193.823 179.89 193.893 180.139 193.976C180.387 194.059 180.607 194.171 180.798 194.311C180.996 194.452 181.154 194.63 181.27 194.846C181.394 195.061 181.456 195.326 181.456 195.641C181.456 196.022 181.369 196.346 181.195 196.611C181.021 196.876 180.793 197.091 180.512 197.257C180.238 197.423 179.932 197.543 179.592 197.617C179.252 197.692 178.917 197.729 178.585 197.729C178.179 197.729 177.802 197.684 177.454 197.592C177.115 197.501 176.816 197.365 176.56 197.182C176.311 196.992 176.112 196.76 175.963 196.486C175.822 196.205 175.748 195.873 175.739 195.492H177.156ZM193.932 197.555H192.938L192.702 196.511C192.288 196.983 191.873 197.311 191.459 197.493C191.045 197.675 190.568 197.766 190.03 197.766C189.367 197.766 188.771 197.646 188.24 197.406C187.718 197.157 187.275 196.822 186.91 196.399C186.546 195.977 186.264 195.484 186.065 194.92C185.875 194.357 185.78 193.756 185.78 193.118C185.78 192.489 185.875 191.892 186.065 191.329C186.264 190.765 186.546 190.272 186.91 189.85C187.275 189.427 187.718 189.092 188.24 188.843C188.771 188.595 189.367 188.47 190.03 188.47C190.51 188.47 190.966 188.537 191.397 188.669C191.836 188.794 192.225 188.984 192.565 189.241C192.905 189.489 193.187 189.804 193.41 190.185C193.634 190.567 193.775 191.006 193.833 191.503H192.317C192.275 191.213 192.184 190.96 192.043 190.745C191.911 190.521 191.741 190.335 191.534 190.185C191.327 190.036 191.095 189.924 190.838 189.85C190.581 189.775 190.312 189.738 190.03 189.738C189.558 189.738 189.147 189.833 188.8 190.024C188.46 190.214 188.182 190.471 187.967 190.794C187.751 191.109 187.59 191.47 187.482 191.876C187.383 192.282 187.333 192.696 187.333 193.118C187.333 193.541 187.383 193.955 187.482 194.361C187.59 194.767 187.751 195.132 187.967 195.455C188.182 195.77 188.46 196.022 188.8 196.213C189.147 196.404 189.558 196.499 190.03 196.499C190.428 196.507 190.78 196.457 191.086 196.35C191.393 196.234 191.65 196.072 191.857 195.865C192.072 195.65 192.234 195.389 192.341 195.082C192.449 194.775 192.507 194.436 192.515 194.063H190.154V192.882H193.932V197.555ZM199.833 193.777C199.816 193.553 199.767 193.338 199.684 193.131C199.609 192.924 199.501 192.746 199.361 192.596C199.228 192.439 199.062 192.315 198.863 192.224C198.673 192.124 198.458 192.074 198.217 192.074C197.969 192.074 197.741 192.12 197.534 192.211C197.335 192.294 197.161 192.414 197.012 192.572C196.871 192.721 196.755 192.899 196.664 193.106C196.581 193.313 196.535 193.537 196.527 193.777H199.833ZM196.527 194.709C196.527 194.958 196.56 195.198 196.626 195.43C196.701 195.662 196.809 195.865 196.95 196.039C197.09 196.213 197.269 196.354 197.484 196.462C197.699 196.561 197.956 196.611 198.255 196.611C198.669 196.611 199 196.524 199.249 196.35C199.506 196.167 199.696 195.898 199.82 195.542H201.163C201.088 195.89 200.96 196.201 200.777 196.474C200.595 196.747 200.376 196.979 200.119 197.17C199.862 197.352 199.572 197.489 199.249 197.58C198.934 197.679 198.603 197.729 198.255 197.729C197.749 197.729 197.302 197.646 196.912 197.481C196.523 197.315 196.191 197.083 195.918 196.785C195.653 196.486 195.45 196.13 195.309 195.716C195.177 195.302 195.11 194.846 195.11 194.349C195.11 193.893 195.181 193.462 195.322 193.056C195.471 192.642 195.678 192.282 195.943 191.975C196.216 191.66 196.544 191.412 196.925 191.229C197.306 191.047 197.737 190.956 198.217 190.956C198.723 190.956 199.174 191.064 199.572 191.279C199.978 191.486 200.313 191.764 200.579 192.112C200.844 192.46 201.034 192.862 201.15 193.317C201.275 193.765 201.308 194.229 201.25 194.709H196.527ZM201.68 191.13H202.749V189.204H204.166V191.13H205.446V192.186H204.166V195.616C204.166 195.766 204.17 195.894 204.178 196.002C204.195 196.109 204.224 196.201 204.265 196.275C204.315 196.35 204.386 196.408 204.477 196.449C204.568 196.482 204.692 196.499 204.85 196.499C204.949 196.499 205.048 196.499 205.148 196.499C205.247 196.491 205.347 196.474 205.446 196.449V197.543C205.289 197.559 205.135 197.576 204.986 197.592C204.837 197.609 204.684 197.617 204.526 197.617C204.154 197.617 203.851 197.584 203.619 197.518C203.395 197.443 203.217 197.34 203.085 197.207C202.961 197.066 202.874 196.892 202.824 196.685C202.782 196.478 202.758 196.242 202.749 195.977V192.186H201.68V191.13ZM210.123 188.682H211.677V197.555H210.123V188.682ZM213.383 191.13H214.725V192.074L214.75 192.099C214.966 191.743 215.247 191.466 215.595 191.267C215.943 191.06 216.329 190.956 216.751 190.956C217.455 190.956 218.01 191.138 218.416 191.503C218.822 191.867 219.025 192.414 219.025 193.143V197.555H217.609V193.516C217.592 193.011 217.484 192.646 217.286 192.422C217.087 192.19 216.776 192.074 216.353 192.074C216.113 192.074 215.898 192.12 215.707 192.211C215.517 192.294 215.355 192.414 215.222 192.572C215.09 192.721 214.986 192.899 214.912 193.106C214.837 193.313 214.8 193.533 214.8 193.765V197.555H213.383V191.13ZM221.588 195.492C221.63 195.906 221.787 196.196 222.061 196.362C222.334 196.528 222.661 196.611 223.042 196.611C223.175 196.611 223.324 196.602 223.49 196.586C223.664 196.561 223.825 196.52 223.974 196.462C224.124 196.404 224.244 196.321 224.335 196.213C224.434 196.097 224.48 195.948 224.472 195.766C224.463 195.583 224.397 195.434 224.273 195.318C224.148 195.202 223.987 195.111 223.788 195.045C223.597 194.97 223.378 194.908 223.129 194.858C222.881 194.809 222.628 194.755 222.371 194.697C222.106 194.639 221.849 194.568 221.601 194.485C221.36 194.403 221.141 194.291 220.942 194.15C220.751 194.009 220.598 193.831 220.482 193.616C220.366 193.392 220.308 193.118 220.308 192.795C220.308 192.447 220.391 192.157 220.557 191.925C220.731 191.685 220.946 191.495 221.203 191.354C221.468 191.205 221.758 191.101 222.073 191.043C222.396 190.985 222.703 190.956 222.993 190.956C223.324 190.956 223.639 190.993 223.937 191.068C224.244 191.134 224.517 191.246 224.757 191.403C225.006 191.561 225.209 191.768 225.366 192.025C225.532 192.273 225.636 192.576 225.677 192.932H224.198C224.132 192.592 223.974 192.364 223.726 192.248C223.486 192.132 223.208 192.074 222.893 192.074C222.794 192.074 222.674 192.083 222.533 192.099C222.4 192.116 222.272 192.149 222.148 192.199C222.032 192.24 221.932 192.306 221.849 192.398C221.766 192.48 221.725 192.592 221.725 192.733C221.725 192.907 221.783 193.048 221.899 193.156C222.023 193.263 222.181 193.355 222.371 193.429C222.57 193.495 222.794 193.553 223.042 193.603C223.291 193.653 223.548 193.707 223.813 193.765C224.07 193.823 224.322 193.893 224.571 193.976C224.82 194.059 225.039 194.171 225.23 194.311C225.429 194.452 225.586 194.63 225.702 194.846C225.826 195.061 225.888 195.326 225.888 195.641C225.888 196.022 225.801 196.346 225.627 196.611C225.453 196.876 225.226 197.091 224.944 197.257C224.67 197.423 224.364 197.543 224.024 197.617C223.684 197.692 223.349 197.729 223.017 197.729C222.612 197.729 222.235 197.684 221.887 197.592C221.547 197.501 221.249 197.365 220.992 197.182C220.743 196.992 220.544 196.76 220.395 196.486C220.254 196.205 220.18 195.873 220.172 195.492H221.588ZM226.318 191.13H227.387V189.204H228.803V191.13H230.083V192.186H228.803V195.616C228.803 195.766 228.808 195.894 228.816 196.002C228.832 196.109 228.861 196.201 228.903 196.275C228.953 196.35 229.023 196.408 229.114 196.449C229.205 196.482 229.329 196.499 229.487 196.499C229.586 196.499 229.686 196.499 229.785 196.499C229.885 196.491 229.984 196.474 230.083 196.449V197.543C229.926 197.559 229.773 197.576 229.624 197.592C229.474 197.609 229.321 197.617 229.164 197.617C228.791 197.617 228.489 197.584 228.257 197.518C228.033 197.443 227.855 197.34 227.722 197.207C227.598 197.066 227.511 196.892 227.461 196.685C227.42 196.478 227.395 196.242 227.387 195.977V192.186H226.318V191.13ZM236.484 196.126C236.484 196.3 236.505 196.424 236.546 196.499C236.596 196.573 236.687 196.611 236.819 196.611C236.861 196.611 236.911 196.611 236.969 196.611C237.027 196.611 237.093 196.602 237.167 196.586V197.568C237.118 197.584 237.051 197.601 236.969 197.617C236.894 197.642 236.815 197.663 236.732 197.679C236.65 197.696 236.567 197.708 236.484 197.717C236.401 197.725 236.331 197.729 236.273 197.729C235.983 197.729 235.742 197.671 235.552 197.555C235.361 197.439 235.237 197.236 235.179 196.946C234.897 197.22 234.549 197.418 234.135 197.543C233.729 197.667 233.336 197.729 232.954 197.729C232.664 197.729 232.387 197.688 232.122 197.605C231.857 197.53 231.62 197.418 231.413 197.269C231.214 197.112 231.053 196.917 230.929 196.685C230.813 196.445 230.755 196.167 230.755 195.853C230.755 195.455 230.825 195.132 230.966 194.883C231.115 194.635 231.306 194.44 231.538 194.299C231.778 194.158 232.043 194.059 232.333 194.001C232.631 193.935 232.93 193.885 233.228 193.852C233.485 193.802 233.729 193.769 233.961 193.752C234.193 193.727 234.396 193.69 234.57 193.64C234.752 193.591 234.893 193.516 234.993 193.417C235.1 193.309 235.154 193.152 235.154 192.944C235.154 192.762 235.109 192.613 235.017 192.497C234.935 192.381 234.827 192.294 234.694 192.236C234.57 192.17 234.429 192.128 234.272 192.112C234.114 192.087 233.965 192.074 233.824 192.074C233.427 192.074 233.099 192.157 232.843 192.323C232.586 192.489 232.441 192.746 232.408 193.094H230.991C231.016 192.679 231.115 192.335 231.289 192.062C231.463 191.789 231.683 191.569 231.948 191.403C232.221 191.238 232.528 191.122 232.867 191.055C233.207 190.989 233.555 190.956 233.911 190.956C234.226 190.956 234.537 190.989 234.843 191.055C235.15 191.122 235.423 191.229 235.664 191.379C235.912 191.528 236.111 191.722 236.26 191.963C236.409 192.195 236.484 192.48 236.484 192.82V196.126ZM235.067 194.336C234.852 194.477 234.587 194.564 234.272 194.597C233.957 194.622 233.642 194.664 233.327 194.722C233.178 194.746 233.033 194.784 232.892 194.833C232.751 194.875 232.627 194.937 232.519 195.02C232.412 195.094 232.325 195.198 232.258 195.331C232.2 195.455 232.171 195.608 232.171 195.79C232.171 195.948 232.217 196.08 232.308 196.188C232.399 196.296 232.507 196.383 232.631 196.449C232.764 196.507 232.905 196.549 233.054 196.573C233.211 196.598 233.352 196.611 233.476 196.611C233.634 196.611 233.804 196.59 233.986 196.549C234.168 196.507 234.338 196.437 234.495 196.337C234.661 196.238 234.798 196.114 234.906 195.964C235.013 195.807 235.067 195.616 235.067 195.393V194.336ZM238.008 191.13H239.351V192.074L239.375 192.099C239.591 191.743 239.873 191.466 240.221 191.267C240.569 191.06 240.954 190.956 241.376 190.956C242.081 190.956 242.636 191.138 243.042 191.503C243.448 191.867 243.651 192.414 243.651 193.143V197.555H242.234V193.516C242.217 193.011 242.11 192.646 241.911 192.422C241.712 192.19 241.401 192.074 240.979 192.074C240.738 192.074 240.523 192.12 240.332 192.211C240.142 192.294 239.98 192.414 239.848 192.572C239.715 192.721 239.612 192.899 239.537 193.106C239.462 193.313 239.425 193.533 239.425 193.765V197.555H238.008V191.13ZM244.498 191.13H245.567V189.204H246.984V191.13H248.264V192.186H246.984V195.616C246.984 195.766 246.988 195.894 246.996 196.002C247.013 196.109 247.042 196.201 247.083 196.275C247.133 196.35 247.204 196.408 247.295 196.449C247.386 196.482 247.51 196.499 247.668 196.499C247.767 196.499 247.866 196.499 247.966 196.499C248.065 196.491 248.165 196.474 248.264 196.449V197.543C248.107 197.559 247.953 197.576 247.804 197.592C247.655 197.609 247.502 197.617 247.344 197.617C246.972 197.617 246.669 197.584 246.437 197.518C246.213 197.443 246.035 197.34 245.903 197.207C245.779 197.066 245.692 196.892 245.642 196.685C245.6 196.478 245.576 196.242 245.567 195.977V192.186H244.498V191.13ZM60.0941 205.682H61.6724L63.2756 212.467H63.3005L65.0901 205.682H66.6809L68.4208 212.467H68.4456L70.0986 205.682H71.6769L69.2286 214.555H67.6503L65.8731 207.77H65.8482L64.0337 214.555H62.4305L60.0941 205.682ZM72.5386 205.682H73.9554V207.024H72.5386V205.682ZM72.5386 208.13H73.9554V214.555H72.5386V208.13ZM74.8528 208.13H75.9216V206.204H77.3384V208.13H78.6185V209.186H77.3384V212.616C77.3384 212.766 77.3425 212.894 77.3508 213.002C77.3674 213.109 77.3964 213.201 77.4378 213.275C77.4875 213.35 77.5579 213.408 77.6491 213.449C77.7402 213.482 77.8645 213.499 78.0219 213.499C78.1213 213.499 78.2208 213.499 78.3202 213.499C78.4196 213.491 78.519 213.474 78.6185 213.449V214.543C78.461 214.559 78.3078 214.576 78.1586 214.592C78.0095 214.609 77.8562 214.617 77.6988 214.617C77.326 214.617 77.0235 214.584 76.7916 214.518C76.5679 214.443 76.3897 214.34 76.2572 214.207C76.1329 214.066 76.0459 213.892 75.9962 213.685C75.9547 213.478 75.9299 213.242 75.9216 212.977V209.186H74.8528V208.13ZM79.6376 205.682H81.0544V208.975H81.0793C81.2533 208.685 81.5101 208.445 81.8498 208.254C82.1978 208.055 82.5831 207.956 83.0056 207.956C83.7099 207.956 84.265 208.138 84.6709 208.503C85.0769 208.867 85.2799 209.414 85.2799 210.143V214.555H83.8631V210.516C83.8466 210.011 83.7389 209.646 83.54 209.422C83.3412 209.19 83.0305 209.074 82.6079 209.074C82.3676 209.074 82.1522 209.12 81.9617 209.211C81.7711 209.294 81.6095 209.414 81.477 209.572C81.3444 209.721 81.2408 209.899 81.1663 210.106C81.0917 210.313 81.0544 210.533 81.0544 210.765V214.555H79.6376V205.682ZM92.8055 205.682H94.4584L97.8761 214.555H96.2107L95.3781 212.206H91.8361L91.0034 214.555H89.4002L92.8055 205.682ZM92.2587 211.026H94.9679L93.6382 207.21H93.6009L92.2587 211.026ZM98.7211 205.682H100.275V214.555H98.7211V205.682ZM101.844 210.504H105.461V211.846H101.844V210.504ZM114.753 214.555H113.759L113.523 213.511C113.108 213.983 112.694 214.311 112.28 214.493C111.866 214.675 111.389 214.766 110.851 214.766C110.188 214.766 109.591 214.646 109.061 214.406C108.539 214.157 108.096 213.822 107.731 213.399C107.367 212.977 107.085 212.484 106.886 211.92C106.696 211.357 106.6 210.756 106.6 210.118C106.6 209.489 106.696 208.892 106.886 208.329C107.085 207.765 107.367 207.272 107.731 206.85C108.096 206.427 108.539 206.092 109.061 205.843C109.591 205.595 110.188 205.47 110.851 205.47C111.331 205.47 111.787 205.537 112.218 205.669C112.657 205.794 113.046 205.984 113.386 206.241C113.726 206.489 114.007 206.804 114.231 207.185C114.455 207.567 114.596 208.006 114.654 208.503H113.137C113.096 208.213 113.005 207.96 112.864 207.745C112.731 207.521 112.562 207.335 112.354 207.185C112.147 207.036 111.915 206.924 111.658 206.85C111.402 206.775 111.132 206.738 110.851 206.738C110.378 206.738 109.968 206.833 109.62 207.024C109.281 207.214 109.003 207.471 108.788 207.794C108.572 208.109 108.411 208.47 108.303 208.876C108.203 209.282 108.154 209.696 108.154 210.118C108.154 210.541 108.203 210.955 108.303 211.361C108.411 211.767 108.572 212.132 108.788 212.455C109.003 212.77 109.281 213.022 109.62 213.213C109.968 213.404 110.378 213.499 110.851 213.499C111.248 213.507 111.6 213.457 111.907 213.35C112.214 213.234 112.47 213.072 112.677 212.865C112.893 212.65 113.054 212.389 113.162 212.082C113.27 211.775 113.328 211.436 113.336 211.063H110.975V209.882H114.753V214.555ZM120.654 210.777C120.637 210.553 120.587 210.338 120.504 210.131C120.43 209.924 120.322 209.746 120.181 209.596C120.049 209.439 119.883 209.315 119.684 209.224C119.494 209.124 119.278 209.074 119.038 209.074C118.789 209.074 118.562 209.12 118.354 209.211C118.156 209.294 117.982 209.414 117.832 209.572C117.692 209.721 117.576 209.899 117.484 210.106C117.402 210.313 117.356 210.537 117.348 210.777H120.654ZM117.348 211.709C117.348 211.958 117.381 212.198 117.447 212.43C117.522 212.662 117.629 212.865 117.77 213.039C117.911 213.213 118.089 213.354 118.305 213.462C118.52 213.561 118.777 213.611 119.075 213.611C119.49 213.611 119.821 213.524 120.069 213.35C120.326 213.167 120.517 212.898 120.641 212.542H121.983C121.909 212.89 121.78 213.201 121.598 213.474C121.416 213.747 121.196 213.979 120.939 214.17C120.683 214.352 120.393 214.489 120.069 214.58C119.755 214.679 119.423 214.729 119.075 214.729C118.57 214.729 118.122 214.646 117.733 214.481C117.344 214.315 117.012 214.083 116.739 213.785C116.474 213.486 116.271 213.13 116.13 212.716C115.997 212.302 115.931 211.846 115.931 211.349C115.931 210.893 116.001 210.462 116.142 210.056C116.291 209.642 116.499 209.282 116.764 208.975C117.037 208.66 117.364 208.412 117.745 208.229C118.127 208.047 118.557 207.956 119.038 207.956C119.543 207.956 119.995 208.064 120.393 208.279C120.799 208.486 121.134 208.764 121.399 209.112C121.664 209.46 121.855 209.862 121.971 210.317C122.095 210.765 122.128 211.229 122.07 211.709H117.348ZM123.147 208.13H124.49V209.074L124.514 209.099C124.73 208.743 125.012 208.466 125.36 208.267C125.708 208.06 126.093 207.956 126.515 207.956C127.22 207.956 127.775 208.138 128.181 208.503C128.587 208.867 128.79 209.414 128.79 210.143V214.555H127.373V210.516C127.356 210.011 127.249 209.646 127.05 209.422C126.851 209.19 126.54 209.074 126.118 209.074C125.877 209.074 125.662 209.12 125.471 209.211C125.281 209.294 125.119 209.414 124.987 209.572C124.854 209.721 124.751 209.899 124.676 210.106C124.601 210.313 124.564 210.533 124.564 210.765V214.555H123.147V208.13ZM134.696 210.777C134.679 210.553 134.629 210.338 134.547 210.131C134.472 209.924 134.364 209.746 134.223 209.596C134.091 209.439 133.925 209.315 133.726 209.224C133.536 209.124 133.32 209.074 133.08 209.074C132.831 209.074 132.604 209.12 132.396 209.211C132.198 209.294 132.024 209.414 131.875 209.572C131.734 209.721 131.618 209.899 131.527 210.106C131.444 210.313 131.398 210.537 131.39 210.777H134.696ZM131.39 211.709C131.39 211.958 131.423 212.198 131.489 212.43C131.564 212.662 131.672 212.865 131.812 213.039C131.953 213.213 132.131 213.354 132.347 213.462C132.562 213.561 132.819 213.611 133.117 213.611C133.532 213.611 133.863 213.524 134.112 213.35C134.368 213.167 134.559 212.898 134.683 212.542H136.025C135.951 212.89 135.822 213.201 135.64 213.474C135.458 213.747 135.238 213.979 134.981 214.17C134.725 214.352 134.435 214.489 134.112 214.58C133.797 214.679 133.465 214.729 133.117 214.729C132.612 214.729 132.164 214.646 131.775 214.481C131.386 214.315 131.054 214.083 130.781 213.785C130.516 213.486 130.313 213.13 130.172 212.716C130.039 212.302 129.973 211.846 129.973 211.349C129.973 210.893 130.043 210.462 130.184 210.056C130.333 209.642 130.541 209.282 130.806 208.975C131.079 208.66 131.406 208.412 131.788 208.229C132.169 208.047 132.599 207.956 133.08 207.956C133.585 207.956 134.037 208.064 134.435 208.279C134.841 208.486 135.176 208.764 135.441 209.112C135.706 209.46 135.897 209.862 136.013 210.317C136.137 210.765 136.17 211.229 136.112 211.709H131.39ZM137.189 208.13H138.519V209.373H138.544C138.586 209.199 138.664 209.029 138.78 208.863C138.905 208.697 139.05 208.548 139.215 208.416C139.389 208.275 139.58 208.163 139.787 208.08C139.994 207.997 140.205 207.956 140.421 207.956C140.586 207.956 140.698 207.96 140.756 207.968C140.823 207.977 140.889 207.985 140.955 207.993V209.36C140.856 209.344 140.752 209.331 140.644 209.323C140.545 209.306 140.446 209.298 140.346 209.298C140.106 209.298 139.878 209.348 139.663 209.447C139.456 209.538 139.273 209.679 139.116 209.87C138.958 210.052 138.834 210.28 138.743 210.553C138.652 210.827 138.606 211.142 138.606 211.498V214.555H137.189V208.13ZM146.94 213.126C146.94 213.3 146.961 213.424 147.002 213.499C147.052 213.573 147.143 213.611 147.275 213.611C147.317 213.611 147.367 213.611 147.425 213.611C147.483 213.611 147.549 213.602 147.623 213.586V214.568C147.574 214.584 147.507 214.601 147.425 214.617C147.35 214.642 147.271 214.663 147.188 214.679C147.106 214.696 147.023 214.708 146.94 214.717C146.857 214.725 146.787 214.729 146.729 214.729C146.439 214.729 146.198 214.671 146.008 214.555C145.817 214.439 145.693 214.236 145.635 213.946C145.353 214.22 145.005 214.418 144.591 214.543C144.185 214.667 143.792 214.729 143.41 214.729C143.12 214.729 142.843 214.688 142.578 214.605C142.313 214.53 142.076 214.418 141.869 214.269C141.671 214.112 141.509 213.917 141.385 213.685C141.269 213.445 141.211 213.167 141.211 212.853C141.211 212.455 141.281 212.132 141.422 211.883C141.571 211.635 141.762 211.44 141.994 211.299C142.234 211.158 142.499 211.059 142.789 211.001C143.087 210.935 143.386 210.885 143.684 210.852C143.941 210.802 144.185 210.769 144.417 210.752C144.649 210.727 144.852 210.69 145.026 210.64C145.208 210.591 145.349 210.516 145.449 210.417C145.556 210.309 145.61 210.152 145.61 209.944C145.61 209.762 145.565 209.613 145.473 209.497C145.391 209.381 145.283 209.294 145.15 209.236C145.026 209.17 144.885 209.128 144.728 209.112C144.57 209.087 144.421 209.074 144.28 209.074C143.883 209.074 143.555 209.157 143.299 209.323C143.042 209.489 142.897 209.746 142.864 210.094H141.447C141.472 209.679 141.571 209.335 141.745 209.062C141.919 208.789 142.139 208.569 142.404 208.403C142.677 208.238 142.984 208.122 143.323 208.055C143.663 207.989 144.011 207.956 144.367 207.956C144.682 207.956 144.993 207.989 145.299 208.055C145.606 208.122 145.879 208.229 146.12 208.379C146.368 208.528 146.567 208.722 146.716 208.963C146.865 209.195 146.94 209.48 146.94 209.82V213.126ZM145.523 211.336C145.308 211.477 145.043 211.564 144.728 211.597C144.413 211.622 144.098 211.664 143.783 211.722C143.634 211.746 143.489 211.784 143.348 211.833C143.207 211.875 143.083 211.937 142.975 212.02C142.868 212.094 142.781 212.198 142.714 212.331C142.656 212.455 142.627 212.608 142.627 212.79C142.627 212.948 142.673 213.08 142.764 213.188C142.855 213.296 142.963 213.383 143.087 213.449C143.22 213.507 143.361 213.549 143.51 213.573C143.667 213.598 143.808 213.611 143.932 213.611C144.09 213.611 144.26 213.59 144.442 213.549C144.624 213.507 144.794 213.437 144.951 213.337C145.117 213.238 145.254 213.114 145.362 212.964C145.469 212.807 145.523 212.616 145.523 212.393V211.336ZM147.818 208.13H148.887V206.204H150.304V208.13H151.584V209.186H150.304V212.616C150.304 212.766 150.308 212.894 150.316 213.002C150.333 213.109 150.362 213.201 150.403 213.275C150.453 213.35 150.523 213.408 150.614 213.449C150.706 213.482 150.83 213.499 150.987 213.499C151.087 213.499 151.186 213.499 151.286 213.499C151.385 213.491 151.484 213.474 151.584 213.449V214.543C151.426 214.559 151.273 214.576 151.124 214.592C150.975 214.609 150.822 214.617 150.664 214.617C150.291 214.617 149.989 214.584 149.757 214.518C149.533 214.443 149.355 214.34 149.223 214.207C149.098 214.066 149.011 213.892 148.962 213.685C148.92 213.478 148.895 213.242 148.887 212.977V209.186H147.818V208.13ZM157.015 210.777C156.998 210.553 156.949 210.338 156.866 210.131C156.791 209.924 156.683 209.746 156.543 209.596C156.41 209.439 156.244 209.315 156.046 209.224C155.855 209.124 155.64 209.074 155.399 209.074C155.151 209.074 154.923 209.12 154.716 209.211C154.517 209.294 154.343 209.414 154.194 209.572C154.053 209.721 153.937 209.899 153.846 210.106C153.763 210.313 153.717 210.537 153.709 210.777H157.015ZM153.709 211.709C153.709 211.958 153.742 212.198 153.808 212.43C153.883 212.662 153.991 212.865 154.132 213.039C154.272 213.213 154.451 213.354 154.666 213.462C154.881 213.561 155.138 213.611 155.437 213.611C155.851 213.611 156.182 213.524 156.431 213.35C156.688 213.167 156.878 212.898 157.002 212.542H158.345C158.27 212.89 158.142 213.201 157.959 213.474C157.777 213.747 157.558 213.979 157.301 214.17C157.044 214.352 156.754 214.489 156.431 214.58C156.116 214.679 155.785 214.729 155.437 214.729C154.931 214.729 154.484 214.646 154.094 214.481C153.705 214.315 153.374 214.083 153.1 213.785C152.835 213.486 152.632 213.13 152.491 212.716C152.359 212.302 152.292 211.846 152.292 211.349C152.292 210.893 152.363 210.462 152.504 210.056C152.653 209.642 152.86 209.282 153.125 208.975C153.398 208.66 153.726 208.412 154.107 208.229C154.488 208.047 154.919 207.956 155.399 207.956C155.905 207.956 156.356 208.064 156.754 208.279C157.16 208.486 157.495 208.764 157.761 209.112C158.026 209.46 158.216 209.862 158.332 210.317C158.457 210.765 158.49 211.229 158.432 211.709H153.709ZM165.561 214.555H164.219V213.685H164.194C164.003 214.058 163.726 214.327 163.361 214.493C162.997 214.65 162.612 214.729 162.206 214.729C161.7 214.729 161.257 214.642 160.876 214.468C160.503 214.286 160.192 214.041 159.944 213.735C159.695 213.428 159.509 213.068 159.384 212.654C159.26 212.231 159.198 211.78 159.198 211.299C159.198 210.719 159.277 210.218 159.434 209.795C159.592 209.373 159.799 209.025 160.056 208.751C160.321 208.478 160.619 208.279 160.95 208.155C161.29 208.022 161.634 207.956 161.982 207.956C162.181 207.956 162.384 207.977 162.591 208.018C162.798 208.051 162.997 208.109 163.187 208.192C163.378 208.275 163.552 208.383 163.709 208.515C163.875 208.639 164.012 208.789 164.119 208.963H164.144V205.682H165.561V214.555ZM160.615 211.411C160.615 211.684 160.648 211.954 160.714 212.219C160.789 212.484 160.897 212.72 161.037 212.927C161.186 213.134 161.373 213.3 161.597 213.424C161.82 213.549 162.085 213.611 162.392 213.611C162.707 213.611 162.976 213.544 163.2 213.412C163.432 213.279 163.618 213.105 163.759 212.89C163.908 212.674 164.016 212.434 164.082 212.169C164.157 211.896 164.194 211.618 164.194 211.336C164.194 210.624 164.032 210.069 163.709 209.671C163.395 209.273 162.964 209.074 162.417 209.074C162.085 209.074 161.804 209.145 161.572 209.286C161.348 209.418 161.162 209.596 161.012 209.82C160.872 210.036 160.768 210.284 160.702 210.566C160.644 210.839 160.615 211.121 160.615 211.411ZM170.764 205.682H175.002C175.98 205.682 176.713 205.893 177.202 206.315C177.691 206.738 177.935 207.326 177.935 208.08C177.935 208.503 177.873 208.855 177.749 209.137C177.624 209.41 177.479 209.634 177.314 209.808C177.148 209.973 176.982 210.094 176.816 210.168C176.659 210.243 176.543 210.292 176.468 210.317V210.342C176.601 210.359 176.742 210.4 176.891 210.466C177.048 210.533 177.193 210.64 177.326 210.79C177.459 210.93 177.566 211.117 177.649 211.349C177.74 211.581 177.786 211.871 177.786 212.219C177.786 212.741 177.823 213.217 177.898 213.648C177.98 214.07 178.105 214.373 178.27 214.555H176.605C176.489 214.365 176.419 214.153 176.394 213.921C176.377 213.689 176.369 213.466 176.369 213.25C176.369 212.844 176.344 212.496 176.294 212.206C176.245 211.908 176.154 211.664 176.021 211.473C175.888 211.274 175.706 211.129 175.474 211.038C175.25 210.947 174.961 210.901 174.604 210.901H172.318V214.555H170.764V205.682ZM172.318 209.721H174.865C175.362 209.721 175.739 209.605 175.996 209.373C176.253 209.132 176.381 208.776 176.381 208.304C176.381 208.022 176.34 207.794 176.257 207.62C176.174 207.438 176.058 207.297 175.909 207.198C175.768 207.098 175.603 207.032 175.412 206.999C175.23 206.966 175.039 206.949 174.84 206.949H172.318V209.721ZM183.728 210.777C183.711 210.553 183.661 210.338 183.578 210.131C183.504 209.924 183.396 209.746 183.255 209.596C183.123 209.439 182.957 209.315 182.758 209.224C182.568 209.124 182.352 209.074 182.112 209.074C181.863 209.074 181.636 209.12 181.428 209.211C181.23 209.294 181.056 209.414 180.906 209.572C180.766 209.721 180.65 209.899 180.558 210.106C180.476 210.313 180.43 210.537 180.422 210.777H183.728ZM180.422 211.709C180.422 211.958 180.455 212.198 180.521 212.43C180.596 212.662 180.703 212.865 180.844 213.039C180.985 213.213 181.163 213.354 181.379 213.462C181.594 213.561 181.851 213.611 182.149 213.611C182.564 213.611 182.895 213.524 183.143 213.35C183.4 213.167 183.591 212.898 183.715 212.542H185.057C184.983 212.89 184.854 213.201 184.672 213.474C184.49 213.747 184.27 213.979 184.013 214.17C183.757 214.352 183.467 214.489 183.143 214.58C182.829 214.679 182.497 214.729 182.149 214.729C181.644 214.729 181.196 214.646 180.807 214.481C180.418 214.315 180.086 214.083 179.813 213.785C179.548 213.486 179.345 213.13 179.204 212.716C179.071 212.302 179.005 211.846 179.005 211.349C179.005 210.893 179.075 210.462 179.216 210.056C179.365 209.642 179.573 209.282 179.838 208.975C180.111 208.66 180.438 208.412 180.819 208.229C181.201 208.047 181.631 207.956 182.112 207.956C182.617 207.956 183.069 208.064 183.467 208.279C183.873 208.486 184.208 208.764 184.473 209.112C184.738 209.46 184.929 209.862 185.045 210.317C185.169 210.765 185.202 211.229 185.144 211.709H180.422ZM187.29 212.492C187.332 212.906 187.489 213.196 187.762 213.362C188.036 213.528 188.363 213.611 188.744 213.611C188.877 213.611 189.026 213.602 189.192 213.586C189.366 213.561 189.527 213.52 189.676 213.462C189.826 213.404 189.946 213.321 190.037 213.213C190.136 213.097 190.182 212.948 190.173 212.766C190.165 212.583 190.099 212.434 189.975 212.318C189.85 212.202 189.689 212.111 189.49 212.045C189.299 211.97 189.08 211.908 188.831 211.858C188.583 211.809 188.33 211.755 188.073 211.697C187.808 211.639 187.551 211.568 187.303 211.485C187.062 211.403 186.843 211.291 186.644 211.15C186.453 211.009 186.3 210.831 186.184 210.616C186.068 210.392 186.01 210.118 186.01 209.795C186.01 209.447 186.093 209.157 186.259 208.925C186.433 208.685 186.648 208.495 186.905 208.354C187.17 208.205 187.46 208.101 187.775 208.043C188.098 207.985 188.405 207.956 188.695 207.956C189.026 207.956 189.341 207.993 189.639 208.068C189.946 208.134 190.219 208.246 190.459 208.403C190.708 208.561 190.911 208.768 191.068 209.025C191.234 209.273 191.338 209.576 191.379 209.932H189.9C189.834 209.592 189.676 209.364 189.428 209.248C189.188 209.132 188.91 209.074 188.595 209.074C188.496 209.074 188.376 209.083 188.235 209.099C188.102 209.116 187.974 209.149 187.849 209.199C187.733 209.24 187.634 209.306 187.551 209.398C187.468 209.48 187.427 209.592 187.427 209.733C187.427 209.907 187.485 210.048 187.601 210.156C187.725 210.263 187.883 210.355 188.073 210.429C188.272 210.495 188.496 210.553 188.744 210.603C188.993 210.653 189.25 210.707 189.515 210.765C189.772 210.823 190.024 210.893 190.273 210.976C190.521 211.059 190.741 211.171 190.932 211.311C191.13 211.452 191.288 211.63 191.404 211.846C191.528 212.061 191.59 212.326 191.59 212.641C191.59 213.022 191.503 213.346 191.329 213.611C191.155 213.876 190.927 214.091 190.646 214.257C190.372 214.423 190.066 214.543 189.726 214.617C189.386 214.692 189.051 214.729 188.719 214.729C188.313 214.729 187.936 214.684 187.588 214.592C187.249 214.501 186.951 214.365 186.694 214.182C186.445 213.992 186.246 213.76 186.097 213.486C185.956 213.205 185.882 212.873 185.873 212.492H187.29ZM192.703 208.13H194.045V209H194.07C194.269 208.627 194.547 208.362 194.903 208.205C195.259 208.039 195.645 207.956 196.059 207.956C196.564 207.956 197.003 208.047 197.376 208.229C197.757 208.403 198.072 208.648 198.321 208.963C198.569 209.269 198.756 209.63 198.88 210.044C199.004 210.458 199.066 210.901 199.066 211.374C199.066 211.804 199.008 212.223 198.892 212.629C198.785 213.035 198.615 213.395 198.383 213.71C198.159 214.017 197.873 214.265 197.525 214.456C197.177 214.638 196.767 214.729 196.295 214.729C196.088 214.729 195.881 214.708 195.674 214.667C195.466 214.634 195.268 214.576 195.077 214.493C194.886 214.41 194.708 214.307 194.543 214.182C194.385 214.05 194.253 213.896 194.145 213.723H194.12V216.929H192.703V208.13ZM197.65 211.349C197.65 211.059 197.612 210.777 197.538 210.504C197.463 210.23 197.351 209.99 197.202 209.783C197.053 209.567 196.867 209.398 196.643 209.273C196.419 209.141 196.162 209.074 195.872 209.074C195.276 209.074 194.824 209.282 194.518 209.696C194.219 210.11 194.07 210.661 194.07 211.349C194.07 211.672 194.108 211.974 194.182 212.256C194.265 212.529 194.385 212.766 194.543 212.964C194.7 213.163 194.886 213.321 195.102 213.437C195.326 213.553 195.582 213.611 195.872 213.611C196.195 213.611 196.469 213.544 196.693 213.412C196.916 213.279 197.099 213.109 197.239 212.902C197.389 212.687 197.492 212.447 197.55 212.181C197.616 211.908 197.65 211.63 197.65 211.349ZM203.209 214.729C202.695 214.729 202.235 214.646 201.829 214.481C201.432 214.307 201.092 214.07 200.81 213.772C200.537 213.474 200.326 213.118 200.176 212.703C200.036 212.289 199.965 211.833 199.965 211.336C199.965 210.848 200.036 210.396 200.176 209.982C200.326 209.567 200.537 209.211 200.81 208.913C201.092 208.615 201.432 208.383 201.829 208.217C202.235 208.043 202.695 207.956 203.209 207.956C203.723 207.956 204.178 208.043 204.576 208.217C204.982 208.383 205.322 208.615 205.595 208.913C205.877 209.211 206.088 209.567 206.229 209.982C206.378 210.396 206.453 210.848 206.453 211.336C206.453 211.833 206.378 212.289 206.229 212.703C206.088 213.118 205.877 213.474 205.595 213.772C205.322 214.07 204.982 214.307 204.576 214.481C204.178 214.646 203.723 214.729 203.209 214.729ZM203.209 213.611C203.524 213.611 203.797 213.544 204.029 213.412C204.261 213.279 204.452 213.105 204.601 212.89C204.75 212.674 204.858 212.434 204.924 212.169C204.999 211.896 205.036 211.618 205.036 211.336C205.036 211.063 204.999 210.79 204.924 210.516C204.858 210.243 204.75 210.002 204.601 209.795C204.452 209.58 204.261 209.406 204.029 209.273C203.797 209.141 203.524 209.074 203.209 209.074C202.894 209.074 202.621 209.141 202.389 209.273C202.157 209.406 201.966 209.58 201.817 209.795C201.668 210.002 201.556 210.243 201.481 210.516C201.415 210.79 201.382 211.063 201.382 211.336C201.382 211.618 201.415 211.896 201.481 212.169C201.556 212.434 201.668 212.674 201.817 212.89C201.966 213.105 202.157 213.279 202.389 213.412C202.621 213.544 202.894 213.611 203.209 213.611ZM207.63 208.13H208.973V209.074L208.997 209.099C209.213 208.743 209.495 208.466 209.843 208.267C210.191 208.06 210.576 207.956 210.998 207.956C211.703 207.956 212.258 208.138 212.664 208.503C213.07 208.867 213.273 209.414 213.273 210.143V214.555H211.856V210.516C211.839 210.011 211.732 209.646 211.533 209.422C211.334 209.19 211.023 209.074 210.601 209.074C210.36 209.074 210.145 209.12 209.954 209.211C209.764 209.294 209.602 209.414 209.47 209.572C209.337 209.721 209.234 209.899 209.159 210.106C209.084 210.313 209.047 210.533 209.047 210.765V214.555H207.63V208.13ZM215.836 212.492C215.877 212.906 216.034 213.196 216.308 213.362C216.581 213.528 216.908 213.611 217.29 213.611C217.422 213.611 217.571 213.602 217.737 213.586C217.911 213.561 218.073 213.52 218.222 213.462C218.371 213.404 218.491 213.321 218.582 213.213C218.682 213.097 218.727 212.948 218.719 212.766C218.711 212.583 218.644 212.434 218.52 212.318C218.396 212.202 218.234 212.111 218.035 212.045C217.845 211.97 217.625 211.908 217.377 211.858C217.128 211.809 216.875 211.755 216.618 211.697C216.353 211.639 216.097 211.568 215.848 211.485C215.608 211.403 215.388 211.291 215.189 211.15C214.999 211.009 214.845 210.831 214.729 210.616C214.613 210.392 214.555 210.118 214.555 209.795C214.555 209.447 214.638 209.157 214.804 208.925C214.978 208.685 215.193 208.495 215.45 208.354C215.715 208.205 216.005 208.101 216.32 208.043C216.643 207.985 216.95 207.956 217.24 207.956C217.571 207.956 217.886 207.993 218.184 208.068C218.491 208.134 218.764 208.246 219.005 208.403C219.253 208.561 219.456 208.768 219.614 209.025C219.779 209.273 219.883 209.576 219.924 209.932H218.445C218.379 209.592 218.222 209.364 217.973 209.248C217.733 209.132 217.455 209.074 217.14 209.074C217.041 209.074 216.921 209.083 216.78 209.099C216.647 209.116 216.519 209.149 216.395 209.199C216.279 209.24 216.179 209.306 216.097 209.398C216.014 209.48 215.972 209.592 215.972 209.733C215.972 209.907 216.03 210.048 216.146 210.156C216.271 210.263 216.428 210.355 216.618 210.429C216.817 210.495 217.041 210.553 217.29 210.603C217.538 210.653 217.795 210.707 218.06 210.765C218.317 210.823 218.57 210.893 218.818 210.976C219.067 211.059 219.286 211.171 219.477 211.311C219.676 211.452 219.833 211.63 219.949 211.846C220.073 212.061 220.136 212.326 220.136 212.641C220.136 213.022 220.049 213.346 219.875 213.611C219.701 213.876 219.473 214.091 219.191 214.257C218.918 214.423 218.611 214.543 218.271 214.617C217.932 214.692 217.596 214.729 217.265 214.729C216.859 214.729 216.482 214.684 216.134 214.592C215.794 214.501 215.496 214.365 215.239 214.182C214.99 213.992 214.792 213.76 214.642 213.486C214.502 213.205 214.427 212.873 214.419 212.492H215.836ZM225.623 210.777C225.607 210.553 225.557 210.338 225.474 210.131C225.399 209.924 225.292 209.746 225.151 209.596C225.018 209.439 224.853 209.315 224.654 209.224C224.463 209.124 224.248 209.074 224.008 209.074C223.759 209.074 223.531 209.12 223.324 209.211C223.125 209.294 222.951 209.414 222.802 209.572C222.661 209.721 222.545 209.899 222.454 210.106C222.371 210.313 222.326 210.537 222.317 210.777H225.623ZM222.317 211.709C222.317 211.958 222.351 212.198 222.417 212.43C222.491 212.662 222.599 212.865 222.74 213.039C222.881 213.213 223.059 213.354 223.274 213.462C223.49 213.561 223.747 213.611 224.045 213.611C224.459 213.611 224.791 213.524 225.039 213.35C225.296 213.167 225.486 212.898 225.611 212.542H226.953C226.878 212.89 226.75 213.201 226.568 213.474C226.385 213.747 226.166 213.979 225.909 214.17C225.652 214.352 225.362 214.489 225.039 214.58C224.724 214.679 224.393 214.729 224.045 214.729C223.539 214.729 223.092 214.646 222.703 214.481C222.313 214.315 221.982 214.083 221.708 213.785C221.443 213.486 221.24 213.13 221.099 212.716C220.967 212.302 220.901 211.846 220.901 211.349C220.901 210.893 220.971 210.462 221.112 210.056C221.261 209.642 221.468 209.282 221.733 208.975C222.007 208.66 222.334 208.412 222.715 208.229C223.096 208.047 223.527 207.956 224.008 207.956C224.513 207.956 224.965 208.064 225.362 208.279C225.768 208.486 226.104 208.764 226.369 209.112C226.634 209.46 226.825 209.862 226.941 210.317C227.065 210.765 227.098 211.229 227.04 211.709H222.317ZM229.186 212.492C229.227 212.906 229.385 213.196 229.658 213.362C229.931 213.528 230.259 213.611 230.64 213.611C230.772 213.611 230.922 213.602 231.087 213.586C231.261 213.561 231.423 213.52 231.572 213.462C231.721 213.404 231.841 213.321 231.932 213.213C232.032 213.097 232.077 212.948 232.069 212.766C232.061 212.583 231.995 212.434 231.87 212.318C231.746 212.202 231.584 212.111 231.386 212.045C231.195 211.97 230.975 211.908 230.727 211.858C230.478 211.809 230.226 211.755 229.969 211.697C229.704 211.639 229.447 211.568 229.198 211.485C228.958 211.403 228.738 211.291 228.54 211.15C228.349 211.009 228.196 210.831 228.08 210.616C227.964 210.392 227.906 210.118 227.906 209.795C227.906 209.447 227.989 209.157 228.154 208.925C228.328 208.685 228.544 208.495 228.801 208.354C229.066 208.205 229.356 208.101 229.67 208.043C229.994 207.985 230.3 207.956 230.59 207.956C230.922 207.956 231.236 207.993 231.535 208.068C231.841 208.134 232.115 208.246 232.355 208.403C232.603 208.561 232.806 208.768 232.964 209.025C233.13 209.273 233.233 209.576 233.275 209.932H231.796C231.729 209.592 231.572 209.364 231.323 209.248C231.083 209.132 230.806 209.074 230.491 209.074C230.391 209.074 230.271 209.083 230.13 209.099C229.998 209.116 229.869 209.149 229.745 209.199C229.629 209.24 229.53 209.306 229.447 209.398C229.364 209.48 229.323 209.592 229.323 209.733C229.323 209.907 229.381 210.048 229.497 210.156C229.621 210.263 229.778 210.355 229.969 210.429C230.168 210.495 230.391 210.553 230.64 210.603C230.888 210.653 231.145 210.707 231.41 210.765C231.667 210.823 231.92 210.893 232.169 210.976C232.417 211.059 232.637 211.171 232.827 211.311C233.026 211.452 233.183 211.63 233.299 211.846C233.424 212.061 233.486 212.326 233.486 212.641C233.486 213.022 233.399 213.346 233.225 213.611C233.051 213.876 232.823 214.091 232.541 214.257C232.268 214.423 231.961 214.543 231.622 214.617C231.282 214.692 230.946 214.729 230.615 214.729C230.209 214.729 229.832 214.684 229.484 214.592C229.144 214.501 228.846 214.365 228.589 214.182C228.341 213.992 228.142 213.76 227.993 213.486C227.852 213.205 227.777 212.873 227.769 212.492H229.186Z" fill="#626161"/>
</g>
<g filter="url(#filter2_d_406_238)">
<path d="M176 20.5863C176 13.0828 182.083 7 189.586 7H269.591V45.3373C269.591 52.8408 263.508 58.9236 256.004 58.9236H189.586C182.083 58.9236 176 52.8408 176 45.3373V20.5863Z" fill="white"/>
</g>
<path d="M195.852 31.1495H197.317V34.4762H201.124V31.1495H202.588V39.5132H201.124V35.7413H197.317V39.5132H195.852V31.1495ZM204.189 31.1495H205.524V32.4146H204.189V31.1495ZM204.189 33.4571H205.524V39.5132H204.189V33.4571ZM212.664 31.1495H214.222L217.443 39.5132H215.874L215.089 37.2993H211.751L210.966 39.5132H209.455L212.664 31.1495ZM212.149 36.1864H214.702L213.449 32.5903H213.414L212.149 36.1864ZM218.088 31.1495H219.423V39.5132H218.088V31.1495ZM220.913 31.1495H222.249V39.5132H220.913V31.1495ZM227.862 35.9522C227.846 35.7413 227.799 35.5383 227.721 35.343C227.651 35.1478 227.55 34.9799 227.417 34.8393C227.292 34.691 227.136 34.5738 226.948 34.4879C226.769 34.3942 226.566 34.3474 226.339 34.3474C226.105 34.3474 225.89 34.3903 225.695 34.4762C225.507 34.5543 225.343 34.6675 225.203 34.8159C225.07 34.9565 224.961 35.1244 224.875 35.3196C224.797 35.5148 224.754 35.7257 224.746 35.9522H227.862ZM224.746 36.8307C224.746 37.065 224.777 37.2915 224.84 37.5101C224.91 37.7288 225.012 37.9201 225.144 38.0841C225.277 38.2481 225.445 38.3808 225.648 38.4824C225.851 38.5761 226.093 38.6229 226.374 38.6229C226.765 38.6229 227.077 38.5409 227.311 38.3769C227.553 38.2051 227.733 37.9513 227.85 37.6155H229.115C229.045 37.9435 228.924 38.2364 228.752 38.4941C228.58 38.7518 228.373 38.9704 228.131 39.1501C227.889 39.3219 227.616 39.4507 227.311 39.5366C227.015 39.6303 226.702 39.6772 226.374 39.6772C225.898 39.6772 225.476 39.5991 225.109 39.4429C224.742 39.2867 224.43 39.0681 224.172 38.7869C223.922 38.5058 223.731 38.17 223.598 37.7795C223.473 37.3891 223.411 36.9596 223.411 36.491C223.411 36.0615 223.477 35.6554 223.61 35.2728C223.75 34.8823 223.946 34.5426 224.196 34.2537C224.453 33.9569 224.762 33.7226 225.121 33.5508C225.48 33.379 225.886 33.2931 226.339 33.2931C226.816 33.2931 227.241 33.3946 227.616 33.5977C227.999 33.7929 228.315 34.0545 228.565 34.3825C228.815 34.7105 228.994 35.0892 229.104 35.5187C229.221 35.9404 229.252 36.3778 229.197 36.8307H224.746ZM230.213 33.4571H231.478V34.3474L231.501 34.3708C231.704 34.035 231.97 33.7734 232.298 33.586C232.626 33.3907 232.989 33.2931 233.387 33.2931C234.051 33.2931 234.574 33.4649 234.957 33.8085C235.339 34.1521 235.531 34.6675 235.531 35.3548V39.5132H234.195V35.7062C234.18 35.2298 234.078 34.8862 233.891 34.6753C233.703 34.4567 233.41 34.3474 233.012 34.3474C232.786 34.3474 232.583 34.3903 232.403 34.4762C232.223 34.5543 232.071 34.6675 231.946 34.8159C231.821 34.9565 231.724 35.1244 231.653 35.3196C231.583 35.5148 231.548 35.7218 231.548 35.9404V39.5132H230.213V33.4571ZM242.011 38.1661C242.011 38.3301 242.03 38.4472 242.07 38.5175C242.116 38.5878 242.202 38.6229 242.327 38.6229C242.366 38.6229 242.413 38.6229 242.468 38.6229C242.522 38.6229 242.585 38.6151 242.655 38.5995V39.5249C242.608 39.5405 242.546 39.5561 242.468 39.5718C242.398 39.5952 242.323 39.6147 242.245 39.6303C242.167 39.6459 242.089 39.6577 242.011 39.6655C241.933 39.6733 241.866 39.6772 241.812 39.6772C241.538 39.6772 241.312 39.6225 241.132 39.5132C240.953 39.4039 240.836 39.2125 240.781 38.9392C240.515 39.1969 240.187 39.3843 239.797 39.5015C239.414 39.6186 239.043 39.6772 238.684 39.6772C238.411 39.6772 238.149 39.6381 237.899 39.56C237.649 39.4898 237.427 39.3843 237.232 39.2438C237.044 39.0954 236.892 38.9119 236.775 38.6932C236.666 38.4667 236.611 38.2051 236.611 37.9084C236.611 37.5335 236.677 37.229 236.81 36.9947C236.951 36.7604 237.13 36.5769 237.349 36.4441C237.575 36.3114 237.825 36.2177 238.099 36.163C238.38 36.1005 238.661 36.0537 238.942 36.0224C239.184 35.9756 239.414 35.9444 239.633 35.9287C239.852 35.9053 240.043 35.8702 240.207 35.8233C240.379 35.7765 240.512 35.7062 240.605 35.6125C240.707 35.5109 240.758 35.3626 240.758 35.1673C240.758 34.9955 240.715 34.855 240.629 34.7456C240.551 34.6363 240.449 34.5543 240.324 34.4996C240.207 34.4372 240.074 34.3981 239.926 34.3825C239.778 34.3591 239.637 34.3474 239.504 34.3474C239.129 34.3474 238.821 34.4255 238.579 34.5816C238.337 34.7378 238.2 34.9799 238.169 35.3079H236.833C236.857 34.9174 236.951 34.5934 237.115 34.3356C237.279 34.0779 237.485 33.871 237.735 33.7148C237.993 33.5586 238.282 33.4493 238.602 33.3868C238.922 33.3243 239.25 33.2931 239.586 33.2931C239.883 33.2931 240.176 33.3243 240.465 33.3868C240.754 33.4493 241.011 33.5508 241.238 33.6914C241.472 33.832 241.66 34.0155 241.8 34.2419C241.941 34.4606 242.011 34.73 242.011 35.0502V38.1661ZM240.676 36.4793C240.473 36.612 240.223 36.694 239.926 36.7253C239.629 36.7487 239.332 36.7878 239.036 36.8424C238.895 36.8658 238.758 36.901 238.626 36.9478C238.493 36.9869 238.376 37.0455 238.274 37.1236C238.173 37.1938 238.091 37.2915 238.028 37.4164C237.974 37.5335 237.946 37.678 237.946 37.8498C237.946 37.9982 237.989 38.1231 238.075 38.2247C238.161 38.3262 238.263 38.4082 238.38 38.4706C238.505 38.5253 238.637 38.5644 238.778 38.5878C238.926 38.6112 239.059 38.6229 239.176 38.6229C239.325 38.6229 239.485 38.6034 239.656 38.5644C239.828 38.5253 239.988 38.4589 240.137 38.3652C240.293 38.2715 240.422 38.1544 240.523 38.0138C240.625 37.8654 240.676 37.6858 240.676 37.475V36.4793Z" fill="#626161"/>
<g filter="url(#filter3_d_406_238)">
<path d="M11.7734 88.9463H191.917C199.421 88.9463 205.503 95.0291 205.503 102.533V127.698C205.503 135.202 199.421 141.285 191.917 141.285H25.3598C17.8563 141.285 11.7734 135.202 11.7734 127.698V88.9463Z" fill="#3445D7"/>
</g>
<g filter="url(#filter4_d_406_238)">
<path d="M43.0794 110.733H44.6144V114.22H48.6056V110.733H50.1406V119.501H48.6056V115.547H44.6144V119.501H43.0794V110.733ZM56.1418 115.768C56.1254 115.547 56.0763 115.334 55.9944 115.129C55.9208 114.924 55.8143 114.748 55.6752 114.601C55.5442 114.446 55.3804 114.323 55.1839 114.233C54.9956 114.134 54.7828 114.085 54.5454 114.085C54.2998 114.085 54.0746 114.13 53.8699 114.22C53.6735 114.302 53.5015 114.421 53.3542 114.577C53.215 114.724 53.1004 114.9 53.0103 115.105C52.9284 115.309 52.8834 115.53 52.8752 115.768H56.1418ZM52.8752 116.689C52.8752 116.934 52.908 117.172 52.9735 117.401C53.0471 117.63 53.1536 117.831 53.2928 118.003C53.4319 118.175 53.608 118.314 53.8208 118.42C54.0337 118.519 54.2875 118.568 54.5822 118.568C54.9915 118.568 55.319 118.482 55.5646 118.31C55.8184 118.13 56.0067 117.864 56.1295 117.512H57.4558C57.3821 117.855 57.2552 118.162 57.0751 118.433C56.895 118.703 56.6781 118.932 56.4243 119.12C56.1705 119.3 55.8839 119.435 55.5646 119.526C55.2535 119.624 54.9261 119.673 54.5822 119.673C54.0828 119.673 53.6407 119.591 53.2559 119.427C52.8711 119.264 52.5437 119.034 52.2735 118.74C52.0115 118.445 51.8109 118.093 51.6717 117.683C51.5408 117.274 51.4753 116.824 51.4753 116.333C51.4753 115.882 51.5448 115.457 51.684 115.055C51.8314 114.646 52.0361 114.29 52.298 113.987C52.5682 113.676 52.8916 113.43 53.2682 113.25C53.6448 113.07 54.0705 112.98 54.5454 112.98C55.0448 112.98 55.491 113.087 55.8839 113.299C56.2851 113.504 56.6167 113.778 56.8786 114.122C57.1406 114.466 57.3289 114.863 57.4435 115.313C57.5663 115.755 57.5991 116.214 57.5418 116.689H52.8752ZM58.6429 110.733H60.0429V119.501H58.6429V110.733ZM61.6051 113.152H62.9313V114.012H62.9559C63.1524 113.643 63.4267 113.381 63.7787 113.226C64.1307 113.062 64.5114 112.98 64.9208 112.98C65.4202 112.98 65.8541 113.07 66.2225 113.25C66.5991 113.422 66.9102 113.664 67.1558 113.975C67.4014 114.278 67.5856 114.634 67.7084 115.043C67.8312 115.453 67.8926 115.891 67.8926 116.357C67.8926 116.783 67.8353 117.196 67.7207 117.598C67.6143 117.999 67.4464 118.355 67.2172 118.666C66.9962 118.969 66.7137 119.214 66.3699 119.403C66.026 119.583 65.6208 119.673 65.1541 119.673C64.9494 119.673 64.7448 119.652 64.5401 119.612C64.3354 119.579 64.1389 119.521 63.9506 119.44C63.7623 119.358 63.5863 119.255 63.4226 119.133C63.267 119.002 63.136 118.85 63.0296 118.678H63.005V121.847H61.6051V113.152ZM66.4927 116.333C66.4927 116.046 66.4558 115.768 66.3821 115.498C66.3085 115.227 66.1979 114.99 66.0506 114.785C65.9032 114.572 65.719 114.405 65.498 114.282C65.2769 114.151 65.0231 114.085 64.7366 114.085C64.1471 114.085 63.7009 114.29 63.398 114.699C63.1033 115.109 62.9559 115.653 62.9559 116.333C62.9559 116.652 62.9927 116.951 63.0664 117.229C63.1483 117.499 63.267 117.733 63.4226 117.929C63.5781 118.126 63.7623 118.281 63.9752 118.396C64.1962 118.51 64.45 118.568 64.7366 118.568C65.0559 118.568 65.326 118.502 65.5471 118.371C65.7681 118.24 65.9482 118.072 66.0874 117.868C66.2348 117.655 66.3371 117.417 66.3944 117.155C66.4599 116.885 66.4927 116.611 66.4927 116.333ZM74.9741 116.062L71.683 110.733H73.4636L75.7846 114.662L78.0688 110.733H79.788L76.5092 116.062V119.501H74.9741V116.062ZM82.2397 119.673C81.7321 119.673 81.2777 119.591 80.8766 119.427C80.4836 119.255 80.1479 119.022 79.8696 118.727C79.5994 118.433 79.3906 118.081 79.2433 117.671C79.1041 117.262 79.0345 116.812 79.0345 116.32C79.0345 115.837 79.1041 115.391 79.2433 114.982C79.3906 114.572 79.5994 114.22 79.8696 113.926C80.1479 113.631 80.4836 113.402 80.8766 113.238C81.2777 113.066 81.7321 112.98 82.2397 112.98C82.7473 112.98 83.1976 113.066 83.5906 113.238C83.9917 113.402 84.3274 113.631 84.5975 113.926C84.8759 114.22 85.0847 114.572 85.2238 114.982C85.3712 115.391 85.4449 115.837 85.4449 116.32C85.4449 116.812 85.3712 117.262 85.2238 117.671C85.0847 118.081 84.8759 118.433 84.5975 118.727C84.3274 119.022 83.9917 119.255 83.5906 119.427C83.1976 119.591 82.7473 119.673 82.2397 119.673ZM82.2397 118.568C82.5508 118.568 82.821 118.502 83.0502 118.371C83.2794 118.24 83.4677 118.068 83.6151 117.855C83.7625 117.643 83.8689 117.405 83.9344 117.143C84.0081 116.873 84.0449 116.599 84.0449 116.32C84.0449 116.05 84.0081 115.78 83.9344 115.51C83.8689 115.24 83.7625 115.002 83.6151 114.798C83.4677 114.585 83.2794 114.413 83.0502 114.282C82.821 114.151 82.5508 114.085 82.2397 114.085C81.9286 114.085 81.6584 114.151 81.4292 114.282C81.2 114.413 81.0117 114.585 80.8643 114.798C80.7169 115.002 80.6064 115.24 80.5327 115.51C80.4672 115.78 80.4345 116.05 80.4345 116.32C80.4345 116.599 80.4672 116.873 80.5327 117.143C80.6064 117.405 80.7169 117.643 80.8643 117.855C81.0117 118.068 81.2 118.24 81.4292 118.371C81.6584 118.502 81.9286 118.568 82.2397 118.568ZM92.1841 119.501H90.8087V118.617H90.7841C90.6122 118.936 90.3543 119.194 90.0104 119.39C89.6748 119.579 89.3309 119.673 88.9789 119.673C88.1438 119.673 87.538 119.468 87.1614 119.059C86.793 118.641 86.6088 118.015 86.6088 117.18V113.152H88.0087V117.045C88.0087 117.602 88.1151 117.995 88.328 118.224C88.5409 118.453 88.8397 118.568 89.2245 118.568C89.5192 118.568 89.7648 118.523 89.9613 118.433C90.1578 118.343 90.3174 118.224 90.4402 118.076C90.563 117.921 90.649 117.737 90.6981 117.524C90.7554 117.311 90.7841 117.082 90.7841 116.836V113.152H92.1841V119.501ZM93.6604 113.152H94.9744V114.38H94.999C95.0399 114.208 95.1177 114.04 95.2323 113.877C95.3551 113.713 95.4984 113.565 95.6621 113.434C95.834 113.295 96.0223 113.185 96.227 113.103C96.4317 113.021 96.6404 112.98 96.8533 112.98C97.017 112.98 97.1276 112.984 97.1849 112.992C97.2504 113.001 97.3159 113.009 97.3814 113.017V114.368C97.2831 114.351 97.1808 114.339 97.0743 114.331C96.9761 114.315 96.8779 114.306 96.7796 114.306C96.5422 114.306 96.3171 114.355 96.1042 114.454C95.8995 114.544 95.7194 114.683 95.5639 114.871C95.4083 115.051 95.2855 115.277 95.1954 115.547C95.1054 115.817 95.0604 116.128 95.0604 116.48V119.501H93.6604V113.152ZM107.511 113.52C107.446 113.267 107.356 113.033 107.241 112.82C107.126 112.608 106.979 112.423 106.799 112.268C106.619 112.112 106.406 111.994 106.16 111.912C105.923 111.822 105.645 111.777 105.325 111.777C104.859 111.777 104.453 111.871 104.11 112.059C103.774 112.247 103.5 112.501 103.287 112.82C103.074 113.132 102.914 113.488 102.808 113.889C102.71 114.29 102.66 114.699 102.66 115.117C102.66 115.534 102.71 115.944 102.808 116.345C102.914 116.746 103.074 117.106 103.287 117.426C103.5 117.737 103.774 117.986 104.11 118.175C104.453 118.363 104.859 118.457 105.325 118.457C105.669 118.457 105.972 118.4 106.234 118.285C106.496 118.162 106.721 117.999 106.91 117.794C107.098 117.581 107.245 117.336 107.352 117.057C107.458 116.779 107.528 116.48 107.56 116.161H109.059C109.026 116.685 108.911 117.164 108.715 117.598C108.526 118.031 108.269 118.408 107.941 118.727C107.614 119.038 107.229 119.28 106.787 119.452C106.345 119.624 105.857 119.71 105.325 119.71C104.67 119.71 104.081 119.591 103.557 119.354C103.041 119.108 102.603 118.776 102.243 118.359C101.883 117.941 101.604 117.454 101.408 116.898C101.22 116.341 101.125 115.747 101.125 115.117C101.125 114.495 101.22 113.905 101.408 113.348C101.604 112.792 101.883 112.305 102.243 111.887C102.603 111.47 103.041 111.138 103.557 110.892C104.081 110.647 104.67 110.524 105.325 110.524C105.817 110.524 106.279 110.594 106.713 110.733C107.147 110.864 107.528 111.06 107.855 111.322C108.191 111.576 108.461 111.887 108.666 112.256C108.87 112.624 108.997 113.046 109.046 113.52H107.511ZM115.833 119.501H114.458V118.617H114.433C114.262 118.936 114.004 119.194 113.66 119.39C113.324 119.579 112.98 119.673 112.628 119.673C111.793 119.673 111.187 119.468 110.811 119.059C110.442 118.641 110.258 118.015 110.258 117.18V113.152H111.658V117.045C111.658 117.602 111.765 117.995 111.977 118.224C112.19 118.453 112.489 118.568 112.874 118.568C113.169 118.568 113.414 118.523 113.611 118.433C113.807 118.343 113.967 118.224 114.09 118.076C114.212 117.921 114.298 117.737 114.348 117.524C114.405 117.311 114.433 117.082 114.433 116.836V113.152H115.833V119.501ZM118.366 117.462C118.407 117.872 118.562 118.158 118.833 118.322C119.103 118.486 119.426 118.568 119.803 118.568C119.934 118.568 120.081 118.559 120.245 118.543C120.417 118.519 120.576 118.478 120.724 118.42C120.871 118.363 120.99 118.281 121.08 118.175C121.178 118.06 121.223 117.913 121.215 117.733C121.207 117.552 121.141 117.405 121.018 117.291C120.896 117.176 120.736 117.086 120.54 117.02C120.351 116.947 120.134 116.885 119.889 116.836C119.643 116.787 119.393 116.734 119.14 116.676C118.878 116.619 118.624 116.55 118.378 116.468C118.141 116.386 117.924 116.275 117.727 116.136C117.539 115.997 117.388 115.821 117.273 115.608C117.158 115.387 117.101 115.117 117.101 114.798C117.101 114.454 117.183 114.167 117.347 113.938C117.519 113.701 117.731 113.512 117.985 113.373C118.247 113.226 118.534 113.123 118.845 113.066C119.164 113.009 119.467 112.98 119.754 112.98C120.081 112.98 120.392 113.017 120.687 113.091C120.99 113.156 121.26 113.267 121.497 113.422C121.743 113.578 121.944 113.782 122.099 114.036C122.263 114.282 122.365 114.581 122.406 114.933H120.945C120.879 114.597 120.724 114.372 120.478 114.257C120.241 114.143 119.966 114.085 119.655 114.085C119.557 114.085 119.438 114.094 119.299 114.11C119.168 114.126 119.041 114.159 118.919 114.208C118.804 114.249 118.706 114.315 118.624 114.405C118.542 114.486 118.501 114.597 118.501 114.736C118.501 114.908 118.558 115.047 118.673 115.154C118.796 115.26 118.951 115.35 119.14 115.424C119.336 115.489 119.557 115.547 119.803 115.596C120.048 115.645 120.302 115.698 120.564 115.755C120.818 115.813 121.068 115.882 121.313 115.964C121.559 116.046 121.776 116.157 121.964 116.296C122.161 116.435 122.316 116.611 122.431 116.824C122.554 117.037 122.615 117.299 122.615 117.61C122.615 117.986 122.529 118.306 122.357 118.568C122.185 118.83 121.96 119.043 121.682 119.206C121.411 119.37 121.109 119.489 120.773 119.562C120.437 119.636 120.106 119.673 119.778 119.673C119.377 119.673 119.004 119.628 118.661 119.538C118.325 119.448 118.03 119.313 117.776 119.133C117.531 118.944 117.334 118.715 117.187 118.445C117.048 118.167 116.974 117.839 116.966 117.462H118.366ZM123.039 113.152H124.095V111.249H125.495V113.152H126.76V114.196H125.495V117.585C125.495 117.733 125.499 117.859 125.508 117.966C125.524 118.072 125.553 118.162 125.594 118.236C125.643 118.31 125.712 118.367 125.802 118.408C125.892 118.441 126.015 118.457 126.171 118.457C126.269 118.457 126.367 118.457 126.466 118.457C126.564 118.449 126.662 118.433 126.76 118.408V119.489C126.605 119.505 126.453 119.521 126.306 119.538C126.158 119.554 126.007 119.562 125.851 119.562C125.483 119.562 125.184 119.53 124.955 119.464C124.734 119.39 124.558 119.288 124.427 119.157C124.304 119.018 124.218 118.846 124.169 118.641C124.128 118.437 124.104 118.203 124.095 117.941V114.196H123.039V113.152ZM130.678 119.673C130.17 119.673 129.716 119.591 129.315 119.427C128.922 119.255 128.586 119.022 128.308 118.727C128.037 118.433 127.829 118.081 127.681 117.671C127.542 117.262 127.473 116.812 127.473 116.32C127.473 115.837 127.542 115.391 127.681 114.982C127.829 114.572 128.037 114.22 128.308 113.926C128.586 113.631 128.922 113.402 129.315 113.238C129.716 113.066 130.17 112.98 130.678 112.98C131.185 112.98 131.636 113.066 132.029 113.238C132.43 113.402 132.765 113.631 133.036 113.926C133.314 114.22 133.523 114.572 133.662 114.982C133.809 115.391 133.883 115.837 133.883 116.32C133.883 116.812 133.809 117.262 133.662 117.671C133.523 118.081 133.314 118.433 133.036 118.727C132.765 119.022 132.43 119.255 132.029 119.427C131.636 119.591 131.185 119.673 130.678 119.673ZM130.678 118.568C130.989 118.568 131.259 118.502 131.488 118.371C131.718 118.24 131.906 118.068 132.053 117.855C132.201 117.643 132.307 117.405 132.372 117.143C132.446 116.873 132.483 116.599 132.483 116.32C132.483 116.05 132.446 115.78 132.372 115.51C132.307 115.24 132.201 115.002 132.053 114.798C131.906 114.585 131.718 114.413 131.488 114.282C131.259 114.151 130.989 114.085 130.678 114.085C130.367 114.085 130.097 114.151 129.867 114.282C129.638 114.413 129.45 114.585 129.302 114.798C129.155 115.002 129.044 115.24 128.971 115.51C128.905 115.78 128.873 116.05 128.873 116.32C128.873 116.599 128.905 116.873 128.971 117.143C129.044 117.405 129.155 117.643 129.302 117.855C129.45 118.068 129.638 118.24 129.867 118.371C130.097 118.502 130.367 118.568 130.678 118.568ZM135.047 113.152H136.373V114.036H136.41C136.516 113.881 136.631 113.737 136.754 113.606C136.877 113.475 137.012 113.365 137.159 113.275C137.315 113.185 137.491 113.115 137.687 113.066C137.884 113.009 138.109 112.98 138.363 112.98C138.747 112.98 139.103 113.066 139.431 113.238C139.767 113.41 140.004 113.676 140.143 114.036C140.381 113.709 140.655 113.451 140.966 113.263C141.277 113.074 141.666 112.98 142.133 112.98C142.804 112.98 143.324 113.144 143.692 113.471C144.069 113.799 144.257 114.347 144.257 115.117V119.501H142.857V115.792C142.857 115.538 142.849 115.309 142.833 115.105C142.816 114.892 142.767 114.712 142.685 114.564C142.612 114.409 142.497 114.29 142.341 114.208C142.186 114.126 141.973 114.085 141.703 114.085C141.228 114.085 140.884 114.233 140.671 114.527C140.458 114.822 140.352 115.24 140.352 115.78V119.501H138.952V115.424C138.952 114.982 138.87 114.65 138.706 114.429C138.551 114.2 138.26 114.085 137.834 114.085C137.654 114.085 137.478 114.122 137.306 114.196C137.143 114.27 136.995 114.376 136.864 114.515C136.742 114.654 136.639 114.826 136.557 115.031C136.484 115.236 136.447 115.469 136.447 115.731V119.501H135.047V113.152ZM150.092 115.768C150.075 115.547 150.026 115.334 149.944 115.129C149.871 114.924 149.764 114.748 149.625 114.601C149.494 114.446 149.33 114.323 149.134 114.233C148.946 114.134 148.733 114.085 148.495 114.085C148.25 114.085 148.025 114.13 147.82 114.22C147.623 114.302 147.451 114.421 147.304 114.577C147.165 114.724 147.05 114.9 146.96 115.105C146.878 115.309 146.833 115.53 146.825 115.768H150.092ZM146.825 116.689C146.825 116.934 146.858 117.172 146.923 117.401C146.997 117.63 147.104 117.831 147.243 118.003C147.382 118.175 147.558 118.314 147.771 118.42C147.984 118.519 148.237 118.568 148.532 118.568C148.941 118.568 149.269 118.482 149.515 118.31C149.768 118.13 149.957 117.864 150.079 117.512H151.406C151.332 117.855 151.205 118.162 151.025 118.433C150.845 118.703 150.628 118.932 150.374 119.12C150.12 119.3 149.834 119.435 149.515 119.526C149.203 119.624 148.876 119.673 148.532 119.673C148.033 119.673 147.591 119.591 147.206 119.427C146.821 119.264 146.494 119.034 146.223 118.74C145.961 118.445 145.761 118.093 145.622 117.683C145.491 117.274 145.425 116.824 145.425 116.333C145.425 115.882 145.495 115.457 145.634 115.055C145.781 114.646 145.986 114.29 146.248 113.987C146.518 113.676 146.842 113.43 147.218 113.25C147.595 113.07 148.02 112.98 148.495 112.98C148.995 112.98 149.441 113.087 149.834 113.299C150.235 113.504 150.567 113.778 150.829 114.122C151.091 114.466 151.279 114.863 151.393 115.313C151.516 115.755 151.549 116.214 151.492 116.689H146.825ZM152.556 113.152H153.87V114.38H153.895C153.936 114.208 154.013 114.04 154.128 113.877C154.251 113.713 154.394 113.565 154.558 113.434C154.73 113.295 154.918 113.185 155.123 113.103C155.327 113.021 155.536 112.98 155.749 112.98C155.913 112.98 156.023 112.984 156.08 112.992C156.146 113.001 156.211 113.009 156.277 113.017V114.368C156.179 114.351 156.076 114.339 155.97 114.331C155.872 114.315 155.773 114.306 155.675 114.306C155.438 114.306 155.213 114.355 155 114.454C154.795 114.544 154.615 114.683 154.459 114.871C154.304 115.051 154.181 115.277 154.091 115.547C154.001 115.817 153.956 116.128 153.956 116.48V119.501H152.556V113.152ZM157.929 117.462C157.97 117.872 158.126 118.158 158.396 118.322C158.666 118.486 158.99 118.568 159.366 118.568C159.497 118.568 159.645 118.559 159.808 118.543C159.98 118.519 160.14 118.478 160.287 118.42C160.435 118.363 160.553 118.281 160.643 118.175C160.742 118.06 160.787 117.913 160.779 117.733C160.77 117.552 160.705 117.405 160.582 117.291C160.459 117.176 160.3 117.086 160.103 117.02C159.915 116.947 159.698 116.885 159.452 116.836C159.207 116.787 158.957 116.734 158.703 116.676C158.441 116.619 158.187 116.55 157.942 116.468C157.704 116.386 157.487 116.275 157.291 116.136C157.103 115.997 156.951 115.821 156.837 115.608C156.722 115.387 156.665 115.117 156.665 114.798C156.665 114.454 156.746 114.167 156.91 113.938C157.082 113.701 157.295 113.512 157.549 113.373C157.811 113.226 158.097 113.123 158.408 113.066C158.728 113.009 159.031 112.98 159.317 112.98C159.645 112.98 159.956 113.017 160.25 113.091C160.553 113.156 160.824 113.267 161.061 113.422C161.307 113.578 161.507 113.782 161.663 114.036C161.826 114.282 161.929 114.581 161.97 114.933H160.508C160.443 114.597 160.287 114.372 160.042 114.257C159.804 114.143 159.53 114.085 159.219 114.085C159.121 114.085 159.002 114.094 158.863 114.11C158.732 114.126 158.605 114.159 158.482 114.208C158.367 114.249 158.269 114.315 158.187 114.405C158.105 114.486 158.065 114.597 158.065 114.736C158.065 114.908 158.122 115.047 158.236 115.154C158.359 115.26 158.515 115.35 158.703 115.424C158.9 115.489 159.121 115.547 159.366 115.596C159.612 115.645 159.866 115.698 160.128 115.755C160.381 115.813 160.631 115.882 160.877 115.964C161.122 116.046 161.339 116.157 161.528 116.296C161.724 116.435 161.88 116.611 161.994 116.824C162.117 117.037 162.178 117.299 162.178 117.61C162.178 117.986 162.093 118.306 161.921 118.568C161.749 118.83 161.524 119.043 161.245 119.206C160.975 119.37 160.672 119.489 160.336 119.562C160.001 119.636 159.669 119.673 159.342 119.673C158.941 119.673 158.568 119.628 158.224 119.538C157.889 119.448 157.594 119.313 157.34 119.133C157.094 118.944 156.898 118.715 156.751 118.445C156.611 118.167 156.538 117.839 156.529 117.462H157.929Z" fill="white"/>
</g>
<circle cx="15.6234" cy="94.6068" r="15.6234" fill="white"/>
<path d="M7.61428 92.0867C8.04809 89.05 10.6488 86.7944 13.7163 86.7944H18.8862C22.2904 86.7944 25.0501 89.5541 25.0501 92.9584V93.9178C25.0501 97.322 22.2904 100.082 18.8862 100.082H15.1553H12.1432C11.5163 100.082 10.8931 100.177 10.2951 100.365L8.11676 101.05C7.25132 101.322 6.39844 100.598 6.52673 99.6995L7.61428 92.0867Z" fill="#3445D7"/>
<circle cx="13.7426" cy="91.6005" r="1.97896" fill="white"/>
<circle cx="19.1137" cy="91.6005" r="1.97896" fill="white"/>
<defs>
<filter id="filter0_d_406_238" x="33.2" y="160.2" width="250.674" height="88.1293" filterUnits="userSpaceOnUse" color-interpolation-filters="sRGB">
<feFlood flood-opacity="0" result="BackgroundImageFix"/>
<feColorMatrix in="SourceAlpha" type="matrix" values="0 0 0 0 0 0 0 0 0 0 0 0 0 0 0 0 0 0 127 0" result="hardAlpha"/>
<feOffset dy="4"/>
<feGaussianBlur stdDeviation="6.9"/>
<feComposite in2="hardAlpha" operator="out"/>
<feColorMatrix type="matrix" values="0 0 0 0 0 0 0 0 0 0 0 0 0 0 0 0 0 0 0.08 0"/>
<feBlend mode="normal" in2="BackgroundImageFix" result="effect1_dropShadow_406_238"/>
<feBlend mode="normal" in="SourceGraphic" in2="effect1_dropShadow_406_238" result="shape"/>
</filter>
<filter id="filter1_d_406_238" x="42.6117" y="167.921" width="231.851" height="69.306" filterUnits="userSpaceOnUse" color-interpolation-filters="sRGB">
<feFlood flood-opacity="0" result="BackgroundImageFix"/>
<feColorMatrix in="SourceAlpha" type="matrix" values="0 0 0 0 0 0 0 0 0 0 0 0 0 0 0 0 0 0 127 0" result="hardAlpha"/>
<feOffset dy="2.30965"/>
<feGaussianBlur stdDeviation="2.19416"/>
<feComposite in2="hardAlpha" operator="out"/>
<feColorMatrix type="matrix" values="0 0 0 0 0 0 0 0 0 0 0 0 0 0 0 0 0 0 0.04 0"/>
<feBlend mode="normal" in2="BackgroundImageFix" result="effect1_dropShadow_406_238"/>
<feBlend mode="normal" in="SourceGraphic" in2="effect1_dropShadow_406_238" result="shape"/>
</filter>
<filter id="filter2_d_406_238" x="169.7" y="0.7" width="106.19" height="64.5238" filterUnits="userSpaceOnUse" color-interpolation-filters="sRGB">
<feFlood flood-opacity="0" result="BackgroundImageFix"/>
<feColorMatrix in="SourceAlpha" type="matrix" values="0 0 0 0 0 0 0 0 0 0 0 0 0 0 0 0 0 0 127 0" result="hardAlpha"/>
<feOffset/>
<feGaussianBlur stdDeviation="3.15"/>
<feComposite in2="hardAlpha" operator="out"/>
<feColorMatrix type="matrix" values="0 0 0 0 0 0 0 0 0 0 0 0 0 0 0 0 0 0 0.08 0"/>
<feBlend mode="normal" in2="BackgroundImageFix" result="effect1_dropShadow_406_238"/>
<feBlend mode="normal" in="SourceGraphic" in2="effect1_dropShadow_406_238" result="shape"/>
</filter>
<filter id="filter3_d_406_238" x="6.93019" y="88.7901" width="203.417" height="62.0249" filterUnits="userSpaceOnUse" color-interpolation-filters="sRGB">
<feFlood flood-opacity="0" result="BackgroundImageFix"/>
<feColorMatrix in="SourceAlpha" type="matrix" values="0 0 0 0 0 0 0 0 0 0 0 0 0 0 0 0 0 0 127 0" result="hardAlpha"/>
<feOffset dy="4.68702"/>
<feGaussianBlur stdDeviation="2.42163"/>
<feComposite in2="hardAlpha" operator="out"/>
<feColorMatrix type="matrix" values="0 0 0 0 0 0 0 0 0 0 0 0 0 0 0 0 0 0 0.1 0"/>
<feBlend mode="normal" in2="BackgroundImageFix" result="effect1_dropShadow_406_238"/>
<feBlend mode="normal" in="SourceGraphic" in2="effect1_dropShadow_406_238" result="shape"/>
</filter>
<filter id="filter4_d_406_238" x="38.2368" y="110.368" width="128.784" height="21.0093" filterUnits="userSpaceOnUse" color-interpolation-filters="sRGB">
<feFlood flood-opacity="0" result="BackgroundImageFix"/>
<feColorMatrix in="SourceAlpha" type="matrix" values="0 0 0 0 0 0 0 0 0 0 0 0 0 0 0 0 0 0 127 0" result="hardAlpha"/>
<feOffset dy="4.68702"/>
<feGaussianBlur stdDeviation="2.42163"/>
<feComposite in2="hardAlpha" operator="out"/>
<feColorMatrix type="matrix" values="0 0 0 0 0 0 0 0 0 0 0 0 0 0 0 0 0 0 0.1 0"/>
<feBlend mode="normal" in2="BackgroundImageFix" result="effect1_dropShadow_406_238"/>
<feBlend mode="normal" in="SourceGraphic" in2="effect1_dropShadow_406_238" result="shape"/>
</filter>
</defs>
</svg>
