<svg width="48" height="37" viewBox="0 0 48 37" fill="none" xmlns="http://www.w3.org/2000/svg">
<path fill-rule="evenodd" clip-rule="evenodd" d="M4.23214 11.0948C5.08892 5.09736 10.2253 0.642578 16.2837 0.642578H35.3613C42.0847 0.642578 47.5352 6.09301 47.5352 12.8165V21.7748C47.5352 28.4983 42.0847 33.9487 35.3613 33.9487H22.7327H14.6797C13.4416 33.9487 12.2108 34.1376 11.0297 34.5088L4.09737 36.6875C2.38812 37.2247 0.70367 35.7941 0.957051 34.0204L4.23214 11.0948ZM24.1477 12.6892C24.1477 15.4288 21.9268 17.6497 19.1872 17.6497C16.4476 17.6497 14.2267 15.4288 14.2267 12.6892C14.2267 9.94958 16.4476 7.72869 19.1872 7.72869C21.9268 7.72869 24.1477 9.94958 24.1477 12.6892ZM32.6499 17.6497C35.3895 17.6497 37.6104 15.4288 37.6104 12.6892C37.6104 9.94958 35.3895 7.72869 32.6499 7.72869C29.9103 7.72869 27.6894 9.94958 27.6894 12.6892C27.6894 15.4288 29.9103 17.6497 32.6499 17.6497Z" fill="#303EB7"/>
</svg>
