<svg width="141" height="18" viewBox="0 0 141 18" fill="none" xmlns="http://www.w3.org/2000/svg">
<path d="M45.9099 1.16807V3.59247C45.9099 3.84327 45.7823 3.88727 45.5843 3.88727H45.5227C44.4755 3.84327 42.8343 3.71127 40.9863 3.71127C40.9027 3.71127 40.8235 3.71127 40.7443 3.72007C39.1207 3.79927 38.1307 4.74087 38.1307 7.59207V10.4521C38.1307 13.6113 39.5035 14.3417 40.5683 14.3417C41.1799 14.3417 41.7255 14.3153 42.2491 14.2713V11.6797H41.5275C41.3515 11.6797 41.2107 11.4685 41.2107 11.2177V9.02207C41.2107 8.76247 41.3515 8.56007 41.5275 8.56007H45.4567C45.6943 8.56007 45.8923 8.76687 45.8923 9.01327V16.6913C45.8923 17.0125 45.7823 17.1533 45.4567 17.2149C45.3907 17.2325 45.3247 17.2413 45.2587 17.2501C44.1059 17.5009 42.6319 17.7033 40.5683 17.7033C38.0867 17.7033 34.3555 16.2117 34.3555 10.4345V7.59207C34.3511 1.76207 37.8183 0.296875 40.9863 0.296875C43.1643 0.296875 44.7351 0.644476 45.5403 0.820473C45.7603 0.864473 45.9099 0.961273 45.9099 1.16807Z" fill="#303EB7"/>
<path d="M32.2036 17.3953C31.3192 17.5097 30.0344 17.6945 27.3108 17.6945C24.0592 17.6945 21.1816 16.9421 21.1816 12.7797V5.18967C21.1816 1.02727 24.0856 0.296875 27.3372 0.296875C30.0608 0.296875 31.3192 0.481676 32.2036 0.596075C32.5556 0.640075 32.7096 0.754475 32.7096 1.05367V3.17887C32.7096 3.42967 32.4808 3.63647 32.2036 3.63647H27.0864C25.9028 3.63647 25.4716 4.00167 25.4716 5.18967V7.27087H32.0012C32.2784 7.27087 32.5028 7.47767 32.5028 7.72847V9.90211C32.5028 10.1529 32.2784 10.3597 32.0012 10.3597H25.4716V12.7841C25.4716 13.9721 25.9028 14.3373 27.0864 14.3373H32.2036C32.4808 14.3373 32.7096 14.5441 32.7096 14.7949V16.9201C32.7096 17.2149 32.56 17.3557 32.2036 17.3997V17.3953Z" fill="#303EB7"/>
<path d="M7.8144 9.88037H0V17.6948H7.8144V9.88037Z" fill="#303EB7"/>
<path d="M17.3066 0.296875H9.49219V8.11127H17.3066V0.296875Z" fill="#303EB7"/>
<path d="M55.3862 11.0609C55.3862 11.6622 55.4888 12.1755 55.6942 12.6009C55.8995 13.0262 56.1855 13.3782 56.5522 13.6569C56.9188 13.9209 57.3368 14.1189 57.8062 14.2509C58.2902 14.3682 58.8108 14.4269 59.3682 14.4269C59.9695 14.4269 60.4828 14.3609 60.9082 14.2289C61.3335 14.0822 61.6782 13.8989 61.9422 13.6789C62.2062 13.4589 62.3968 13.2095 62.5142 12.9309C62.6315 12.6375 62.6902 12.3442 62.6902 12.0509C62.6902 11.4495 62.5508 11.0095 62.2722 10.7309C62.0082 10.4375 61.7148 10.2322 61.3922 10.1149C60.8348 9.90954 60.1822 9.71887 59.4342 9.54287C58.7008 9.35221 57.7915 9.11021 56.7062 8.81687C56.0315 8.64087 55.4668 8.41354 55.0122 8.13487C54.5722 7.84154 54.2202 7.51887 53.9562 7.16687C53.6922 6.81487 53.5015 6.44087 53.3842 6.04487C53.2815 5.64887 53.2302 5.24554 53.2302 4.83487C53.2302 4.04287 53.3915 3.36087 53.7142 2.78887C54.0515 2.20221 54.4915 1.71821 55.0342 1.33687C55.5768 0.955541 56.1928 0.676874 56.8822 0.500874C57.5715 0.310208 58.2682 0.214875 58.9722 0.214875C59.7935 0.214875 60.5635 0.324875 61.2822 0.544875C62.0155 0.750208 62.6535 1.06554 63.1962 1.49087C63.7535 1.91621 64.1935 2.44421 64.5162 3.07487C64.8388 3.69087 65.0002 4.40954 65.0002 5.23087H62.2502C62.1768 4.21887 61.8322 3.50754 61.2162 3.09687C60.6002 2.67154 59.8155 2.45887 58.8622 2.45887C58.5395 2.45887 58.2095 2.49554 57.8722 2.56887C57.5348 2.62754 57.2268 2.73754 56.9482 2.89887C56.6695 3.04554 56.4348 3.25087 56.2442 3.51487C56.0682 3.77887 55.9802 4.10887 55.9802 4.50487C55.9802 5.06221 56.1488 5.50221 56.4862 5.82487C56.8382 6.13287 57.2928 6.36754 57.8502 6.52887C57.9088 6.54354 58.1362 6.60954 58.5322 6.72687C58.9428 6.82954 59.3975 6.94687 59.8962 7.07887C60.3948 7.21087 60.8788 7.34287 61.3482 7.47487C61.8322 7.59221 62.1768 7.68021 62.3822 7.73887C62.8955 7.90021 63.3428 8.12021 63.7242 8.39887C64.1055 8.67754 64.4208 9.00021 64.6702 9.36687C64.9342 9.71887 65.1248 10.1002 65.2422 10.5109C65.3742 10.9215 65.4402 11.3322 65.4402 11.7429C65.4402 12.6229 65.2568 13.3782 64.8902 14.0089C64.5382 14.6249 64.0688 15.1309 63.4822 15.5269C62.8955 15.9229 62.2282 16.2089 61.4802 16.3849C60.7322 16.5755 59.9695 16.6709 59.1922 16.6709C58.2975 16.6709 57.4542 16.5609 56.6622 16.3409C55.8702 16.1209 55.1808 15.7835 54.5942 15.3289C54.0075 14.8742 53.5382 14.2949 53.1862 13.5909C52.8342 12.8722 52.6508 12.0289 52.6362 11.0609H55.3862ZM77.0218 13.7669C77.0218 14.0749 77.0584 14.2949 77.1318 14.4269C77.2198 14.5589 77.3811 14.6249 77.6158 14.6249C77.6891 14.6249 77.7771 14.6249 77.8798 14.6249C77.9824 14.6249 78.0998 14.6102 78.2318 14.5809V16.3189C78.1438 16.3482 78.0264 16.3775 77.8798 16.4069C77.7478 16.4509 77.6084 16.4875 77.4618 16.5169C77.3151 16.5462 77.1684 16.5682 77.0218 16.5829C76.8751 16.5975 76.7504 16.6049 76.6478 16.6049C76.1344 16.6049 75.7091 16.5022 75.3718 16.2969C75.0344 16.0915 74.8144 15.7322 74.7118 15.2189C74.2131 15.7029 73.5971 16.0549 72.8638 16.2749C72.1451 16.4949 71.4484 16.6049 70.7738 16.6049C70.2604 16.6049 69.7691 16.5315 69.2998 16.3849C68.8304 16.2529 68.4124 16.0549 68.0458 15.7909C67.6938 15.5122 67.4078 15.1675 67.1878 14.7569C66.9824 14.3315 66.8798 13.8402 66.8798 13.2829C66.8798 12.5789 67.0044 12.0069 67.2538 11.5669C67.5178 11.1269 67.8551 10.7822 68.2658 10.5329C68.6911 10.2835 69.1604 10.1075 69.6738 10.0049C70.2018 9.88754 70.7298 9.79954 71.2578 9.74087C71.7124 9.65287 72.1451 9.59421 72.5558 9.56487C72.9664 9.52087 73.3258 9.45487 73.6338 9.36687C73.9564 9.27887 74.2058 9.14687 74.3818 8.97087C74.5724 8.78021 74.6678 8.50154 74.6678 8.13487C74.6678 7.81221 74.5871 7.54821 74.4258 7.34287C74.2791 7.13754 74.0884 6.98354 73.8538 6.88087C73.6338 6.76354 73.3844 6.69021 73.1058 6.66087C72.8271 6.61687 72.5631 6.59487 72.3138 6.59487C71.6098 6.59487 71.0304 6.74154 70.5758 7.03487C70.1211 7.32821 69.8644 7.78287 69.8058 8.39887H67.2978C67.3418 7.66554 67.5178 7.05687 67.8258 6.57287C68.1338 6.08887 68.5224 5.70021 68.9918 5.40687C69.4758 5.11354 70.0184 4.90821 70.6198 4.79087C71.2211 4.67354 71.8371 4.61487 72.4678 4.61487C73.0251 4.61487 73.5751 4.67354 74.1178 4.79087C74.6604 4.90821 75.1444 5.09887 75.5698 5.36287C76.0098 5.62687 76.3618 5.97154 76.6258 6.39687C76.8898 6.80754 77.0218 7.31354 77.0218 7.91487V13.7669ZM74.5138 10.5989C74.1324 10.8482 73.6631 11.0022 73.1058 11.0609C72.5484 11.1049 71.9911 11.1782 71.4338 11.2809C71.1698 11.3249 70.9131 11.3909 70.6638 11.4789C70.4144 11.5522 70.1944 11.6622 70.0038 11.8089C69.8131 11.9409 69.6591 12.1242 69.5418 12.3589C69.4391 12.5789 69.3878 12.8502 69.3878 13.1729C69.3878 13.4515 69.4684 13.6862 69.6298 13.8769C69.7911 14.0675 69.9818 14.2215 70.2018 14.3389C70.4364 14.4415 70.6858 14.5149 70.9498 14.5589C71.2284 14.6029 71.4778 14.6249 71.6978 14.6249C71.9764 14.6249 72.2771 14.5882 72.5998 14.5149C72.9224 14.4415 73.2231 14.3169 73.5018 14.1409C73.7951 13.9649 74.0371 13.7449 74.2278 13.4809C74.4184 13.2022 74.5138 12.8649 74.5138 12.4689V10.5989ZM81.6124 12.6449C81.6857 13.3782 81.9644 13.8915 82.4484 14.1849C82.9324 14.4782 83.5117 14.6249 84.1864 14.6249C84.4211 14.6249 84.6851 14.6102 84.9784 14.5809C85.2864 14.5369 85.5724 14.4635 85.8364 14.3609C86.1004 14.2582 86.3131 14.1115 86.4744 13.9209C86.6504 13.7155 86.7311 13.4515 86.7164 13.1289C86.7017 12.8062 86.5844 12.5422 86.3644 12.3369C86.1444 12.1315 85.8584 11.9702 85.5064 11.8529C85.1691 11.7209 84.7804 11.6109 84.3404 11.5229C83.9004 11.4349 83.4531 11.3395 82.9984 11.2369C82.5291 11.1342 82.0744 11.0095 81.6344 10.8629C81.2091 10.7162 80.8204 10.5182 80.4684 10.2689C80.1311 10.0195 79.8597 9.70421 79.6544 9.32287C79.4491 8.92687 79.3464 8.44287 79.3464 7.87087C79.3464 7.25487 79.4931 6.74154 79.7864 6.33087C80.0944 5.90554 80.4757 5.56821 80.9304 5.31887C81.3997 5.05487 81.9131 4.87154 82.4704 4.76887C83.0424 4.66621 83.5851 4.61487 84.0984 4.61487C84.6851 4.61487 85.2424 4.68087 85.7704 4.81287C86.3131 4.93021 86.7971 5.12821 87.2224 5.40687C87.6624 5.68554 88.0217 6.05221 88.3004 6.50687C88.5937 6.94687 88.7771 7.48221 88.8504 8.11287H86.2324C86.1151 7.51154 85.8364 7.10821 85.3964 6.90287C84.9711 6.69754 84.4797 6.59487 83.9224 6.59487C83.7464 6.59487 83.5337 6.60954 83.2844 6.63887C83.0497 6.66821 82.8224 6.72687 82.6024 6.81487C82.3971 6.88821 82.2211 7.00554 82.0744 7.16687C81.9277 7.31354 81.8544 7.51154 81.8544 7.76087C81.8544 8.06887 81.9571 8.31821 82.1624 8.50887C82.3824 8.69954 82.6611 8.86087 82.9984 8.99287C83.3504 9.11021 83.7464 9.21287 84.1864 9.30087C84.6264 9.38887 85.0811 9.48421 85.5504 9.58687C86.0051 9.68954 86.4524 9.81421 86.8924 9.96087C87.3324 10.1075 87.7211 10.3055 88.0584 10.5549C88.4104 10.8042 88.6891 11.1195 88.8944 11.5009C89.1144 11.8822 89.2244 12.3515 89.2244 12.9089C89.2244 13.5835 89.0704 14.1555 88.7624 14.6249C88.4544 15.0942 88.0511 15.4755 87.5524 15.7689C87.0684 16.0622 86.5257 16.2749 85.9244 16.4069C85.3231 16.5389 84.7291 16.6049 84.1424 16.6049C83.4237 16.6049 82.7564 16.5242 82.1404 16.3629C81.5391 16.2015 81.0111 15.9595 80.5564 15.6369C80.1164 15.2995 79.7644 14.8889 79.5004 14.4049C79.2511 13.9062 79.1191 13.3195 79.1044 12.6449H81.6124ZM91.1286 0.588874H93.6366V6.41887H93.6806C93.9886 5.90554 94.4433 5.48021 95.0446 5.14287C95.6606 4.79087 96.3426 4.61487 97.0906 4.61487C98.3373 4.61487 99.3199 4.93754 100.039 5.58287C100.757 6.22821 101.117 7.19621 101.117 8.48687V16.2969H98.6086V9.14687C98.5793 8.25221 98.3886 7.60687 98.0366 7.21087C97.6846 6.80021 97.1346 6.59487 96.3866 6.59487C95.9613 6.59487 95.5799 6.67554 95.2426 6.83687C94.9053 6.98354 94.6193 7.19621 94.3846 7.47487C94.1499 7.73887 93.9666 8.05421 93.8346 8.42087C93.7026 8.78754 93.6366 9.17621 93.6366 9.58687V16.2969H91.1286V0.588874ZM113.287 13.7669C113.287 14.0749 113.324 14.2949 113.397 14.4269C113.485 14.5589 113.647 14.6249 113.881 14.6249C113.955 14.6249 114.043 14.6249 114.145 14.6249C114.248 14.6249 114.365 14.6102 114.497 14.5809V16.3189C114.409 16.3482 114.292 16.3775 114.145 16.4069C114.013 16.4509 113.874 16.4875 113.727 16.5169C113.581 16.5462 113.434 16.5682 113.287 16.5829C113.141 16.5975 113.016 16.6049 112.913 16.6049C112.4 16.6049 111.975 16.5022 111.637 16.2969C111.3 16.0915 111.08 15.7322 110.977 15.2189C110.479 15.7029 109.863 16.0549 109.129 16.2749C108.411 16.4949 107.714 16.6049 107.039 16.6049C106.526 16.6049 106.035 16.5315 105.565 16.3849C105.096 16.2529 104.678 16.0549 104.311 15.7909C103.959 15.5122 103.673 15.1675 103.453 14.7569C103.248 14.3315 103.145 13.8402 103.145 13.2829C103.145 12.5789 103.27 12.0069 103.519 11.5669C103.783 11.1269 104.121 10.7822 104.531 10.5329C104.957 10.2835 105.426 10.1075 105.939 10.0049C106.467 9.88754 106.995 9.79954 107.523 9.74087C107.978 9.65287 108.411 9.59421 108.821 9.56487C109.232 9.52087 109.591 9.45487 109.899 9.36687C110.222 9.27887 110.471 9.14687 110.647 8.97087C110.838 8.78021 110.933 8.50154 110.933 8.13487C110.933 7.81221 110.853 7.54821 110.691 7.34287C110.545 7.13754 110.354 6.98354 110.119 6.88087C109.899 6.76354 109.65 6.69021 109.371 6.66087C109.093 6.61687 108.829 6.59487 108.579 6.59487C107.875 6.59487 107.296 6.74154 106.841 7.03487C106.387 7.32821 106.13 7.78287 106.071 8.39887H103.563C103.607 7.66554 103.783 7.05687 104.091 6.57287C104.399 6.08887 104.788 5.70021 105.257 5.40687C105.741 5.11354 106.284 4.90821 106.885 4.79087C107.487 4.67354 108.103 4.61487 108.733 4.61487C109.291 4.61487 109.841 4.67354 110.383 4.79087C110.926 4.90821 111.41 5.09887 111.835 5.36287C112.275 5.62687 112.627 5.97154 112.891 6.39687C113.155 6.80754 113.287 7.31354 113.287 7.91487V13.7669ZM110.779 10.5989C110.398 10.8482 109.929 11.0022 109.371 11.0609C108.814 11.1049 108.257 11.1782 107.699 11.2809C107.435 11.3249 107.179 11.3909 106.929 11.4789C106.68 11.5522 106.46 11.6622 106.269 11.8089C106.079 11.9409 105.925 12.1242 105.807 12.3589C105.705 12.5789 105.653 12.8502 105.653 13.1729C105.653 13.4515 105.734 13.6862 105.895 13.8769C106.057 14.0675 106.247 14.2215 106.467 14.3389C106.702 14.4415 106.951 14.5149 107.215 14.5589C107.494 14.6029 107.743 14.6249 107.963 14.6249C108.242 14.6249 108.543 14.5882 108.865 14.5149C109.188 14.4415 109.489 14.3169 109.767 14.1409C110.061 13.9649 110.303 13.7449 110.493 13.4809C110.684 13.2022 110.779 12.8649 110.779 12.4689V10.5989Z" fill="#2F2F2F"/>
</svg>
